<svg width="364" height="94" viewBox="0 0 364 94" fill="none" xmlns="http://www.w3.org/2000/svg">
<path fill-rule="evenodd" clip-rule="evenodd" d="M70.5605 13.3969C67.3631 13.1574 64.1535 13.2273 60.9026 13.549C57.1869 13.9164 53.4225 14.6046 49.7239 15.7541C23.3733 23.9417 7.43255 49.9375 10.7151 76.4365H23.0326C19.6065 55.0962 32.1187 33.9943 53.3739 27.3903C73.6411 21.0904 94.8841 30.1424 104.853 47.9203H118.237C109.949 28.0643 91.2414 14.9494 70.5605 13.3969Z" fill="black" stroke="white" stroke-width="5" stroke-linecap="round" stroke-linejoin="round"/>
<path d="M119.025 37.4248C123.179 44.2284 121.028 53.1198 114.224 57.2735C107.421 61.4272 98.5269 59.2761 94.3732 52.4725C90.2219 45.6689 92.373 36.7751 99.1766 32.6214C105.98 28.4677 114.872 30.6188 119.025 37.4248Z" stroke="white" stroke-width="8.125" stroke-linecap="round" stroke-linejoin="round"/>
<path d="M48.1741 10.6966C55.788 8.33091 63.8862 12.5892 66.2514 20.2014C68.6166 27.8132 64.3582 35.9113 56.7468 38.2765C49.1329 40.6417 41.0347 36.3858 38.6695 28.7719C36.3043 21.1604 40.5627 13.062 48.1741 10.6966Z" stroke="white" stroke-width="8.125" stroke-linecap="round" stroke-linejoin="round"/>
<path d="M33.7418 69.5156C33.7418 77.4872 27.2716 83.9575 19.3 83.9575C11.3289 83.9575 4.85938 77.4872 4.85938 69.5156C4.85938 61.544 11.3289 55.0738 19.3 55.0738C27.2716 55.0738 33.7418 61.544 33.7418 69.5156Z" stroke="white" stroke-width="8.125" stroke-linecap="round" stroke-linejoin="round"/>
<path fill-rule="evenodd" clip-rule="evenodd" d="M70.5605 13.3969C67.3631 13.1574 64.1535 13.2273 60.9026 13.549C57.1869 13.9164 53.4225 14.6046 49.7239 15.7541C23.3733 23.9417 7.43255 49.9375 10.7151 76.4365H23.0326C19.6065 55.0962 32.1187 33.9943 53.3739 27.3903C73.6411 21.0904 94.8841 30.1424 104.853 47.9203H118.237C109.949 28.0643 91.2414 14.9494 70.5605 13.3969Z" fill="black"/>
<path d="M48.1741 10.6966C55.788 8.33091 63.8862 12.5892 66.2514 20.2014C68.6166 27.8132 64.3582 35.9113 56.7468 38.2765C49.1329 40.6417 41.0347 36.3858 38.6695 28.7719C36.3043 21.1604 40.5627 13.062 48.1741 10.6966Z" fill="white" stroke="black" stroke-width="3.125" stroke-linecap="round" stroke-linejoin="round"/>
<path d="M33.7418 69.5156C33.7418 77.4872 27.2716 83.9575 19.3 83.9575C11.3289 83.9575 4.85938 77.4872 4.85938 69.5156C4.85938 61.544 11.3289 55.0738 19.3 55.0738C27.2716 55.0738 33.7418 61.544 33.7418 69.5156Z" fill="white" stroke="black" stroke-width="3.125" stroke-linecap="round" stroke-linejoin="round"/>
<path d="M119.025 37.4248C123.179 44.2284 121.028 53.1198 114.224 57.2735C107.421 61.4272 98.5269 59.2761 94.3732 52.4725C90.2219 45.6689 92.373 36.7751 99.1766 32.6214C105.98 28.4677 114.872 30.6188 119.025 37.4248Z" fill="white" stroke="black" stroke-width="3.125" stroke-linecap="round" stroke-linejoin="round"/>
<path d="M78.7777 61.9918C82.9314 68.7954 80.7804 77.6868 73.9768 81.8405C67.1732 85.9942 58.2793 83.8431 54.1256 77.0395C49.9744 70.2359 52.1254 61.3421 58.929 57.1884C65.7326 53.0347 74.624 55.1857 78.7777 61.9918Z" stroke="white" stroke-width="8.125" stroke-linecap="round" stroke-linejoin="round"/>
<path d="M78.7777 61.9918C82.9314 68.7954 80.7804 77.6868 73.9768 81.8405C67.1732 85.9942 58.2793 83.8431 54.1256 77.0395C49.9744 70.2359 52.1254 61.3421 58.929 57.1884C65.7326 53.0347 74.624 55.1857 78.7777 61.9918Z" fill="black" stroke="black" stroke-width="3.125" stroke-linecap="round" stroke-linejoin="round"/>
<path d="M142.72 23.58H160.96C165.547 23.58 169.12 23.8733 171.68 24.46C174.293 24.9933 176.187 25.98 177.36 27.42C178.587 28.86 179.2 30.9667 179.2 33.74V42.7C179.2 45.7933 177.92 48.1933 175.36 49.9C172.853 51.5533 169.653 52.38 165.76 52.38L182.4 75.5H172.88L158 53.34H150.48V75.5H142.72V23.58ZM160.64 48.22C164.48 48.22 167.227 47.7667 168.88 46.86C170.587 45.9 171.44 44.1933 171.44 41.74V34.54C171.44 30.6467 168.08 28.7 161.36 28.7H150.48V48.22H160.64ZM204.707 76.3C201.027 76.3 198.174 75.9533 196.147 75.26C194.174 74.5667 192.734 73.34 191.827 71.58C190.974 69.82 190.547 67.2867 190.547 63.98C190.547 61.0467 190.947 58.78 191.747 57.18C192.6 55.5267 194.014 54.3533 195.987 53.66C198.014 52.9667 200.867 52.62 204.547 52.62H216.147V46.46C216.147 45.02 215.854 43.9267 215.267 43.18C214.734 42.38 213.8 41.82 212.467 41.5C211.187 41.18 209.294 41.02 206.787 41.02C202.787 41.02 198.36 41.34 193.507 41.98V36.7C198.787 36.22 203.56 35.98 207.827 35.98C212.307 35.98 215.614 36.3267 217.747 37.02C219.88 37.66 221.347 38.8067 222.147 40.46C222.947 42.1133 223.347 44.6733 223.347 48.14V75.5H216.387V71.82C215.8 74.8067 211.907 76.3 204.707 76.3ZM205.907 71.58C208.52 71.58 210.734 71.3933 212.547 71.02C214.947 70.54 216.147 69.42 216.147 67.66V57.1H205.027C202.734 57.1 201.08 57.2867 200.067 57.66C199.054 57.98 198.387 58.62 198.067 59.58C197.747 60.54 197.587 62.0867 197.587 64.22C197.587 66.14 197.774 67.6333 198.147 68.7C198.52 69.7133 199.187 70.46 200.147 70.94C201.107 71.3667 202.547 71.58 204.467 71.58H205.907ZM235.834 36.78H243.034V41.5C243.78 37.82 248.02 35.98 255.754 35.98C260.714 35.98 264.18 36.8867 266.154 38.7C268.18 40.46 269.194 43.26 269.194 47.1V75.5H261.994V47.5C261.994 46.4867 261.914 45.66 261.754 45.02C261.594 44.38 261.274 43.74 260.794 43.1C259.727 41.7667 257.354 41.1 253.674 41.1C250.847 41.1 248.66 41.3133 247.114 41.74C245.62 42.1133 244.554 42.7533 243.914 43.66C243.327 44.5667 243.034 45.8467 243.034 47.5V75.5H235.834V36.78ZM296.333 93.1C291.053 93.1 286.6 92.8067 282.973 92.22V87.1C289.373 87.8467 294.04 88.22 296.973 88.22C300.653 88.22 303.32 87.6333 304.973 86.46C306.68 85.2867 307.533 83.34 307.533 80.62V71.34C307.426 73.0467 306.253 74.3 304.013 75.1C301.826 75.9 299.053 76.3 295.693 76.3C291.693 76.3 288.573 75.9267 286.333 75.18C284.146 74.4333 282.573 73.2067 281.613 71.5C280.706 69.7933 280.253 67.4733 280.253 64.54V48.78C280.253 44.1933 281.48 40.9133 283.933 38.94C286.44 36.9667 290.52 35.98 296.173 35.98C302.893 35.98 306.84 37.5 308.013 40.54V36.78H314.733V79.18C314.733 82.7533 314.066 85.5533 312.733 87.58C311.4 89.6067 309.4 91.02 306.733 91.82C304.066 92.6733 300.6 93.1 296.333 93.1ZM297.213 71.5C301 71.5 303.666 71.0467 305.213 70.14C306.76 69.2333 307.533 67.5267 307.533 65.02V47.5C307.533 45.74 307.24 44.4067 306.653 43.5C306.12 42.5933 305.106 41.9533 303.613 41.58C302.12 41.1533 299.933 40.94 297.053 40.94C294.333 40.94 292.28 41.1267 290.893 41.5C289.56 41.8733 288.626 42.54 288.093 43.5C287.613 44.4067 287.373 45.74 287.373 47.5V65.02C287.373 66.8333 287.64 68.1933 288.173 69.1C288.706 70.0067 289.666 70.6467 291.053 71.02C292.44 71.34 294.493 71.5 297.213 71.5ZM343.56 76.3C331.72 76.3 325.8 72.3533 325.8 64.46V49.18C325.8 44.4867 327.133 41.1267 329.8 39.1C332.52 37.02 336.893 35.98 342.92 35.98C348.627 35.98 352.733 36.9667 355.24 38.94C357.8 40.9133 359.08 44.3267 359.08 49.18V57.74H333.08V63.58C333.08 66.2467 334.013 68.1667 335.88 69.34C337.747 70.5133 340.627 71.1 344.52 71.1C348.2 71.1 352.547 70.46 357.56 69.18V74.7C352.653 75.7667 347.987 76.3 343.56 76.3ZM351.88 53.02V46.94C351.88 44.5933 351.16 42.9933 349.72 42.14C348.333 41.2333 345.933 40.78 342.52 40.78C339.213 40.78 336.813 41.2333 335.32 42.14C333.827 42.9933 333.08 44.5933 333.08 46.94V53.02H351.88Z" fill="white"/>
</svg>
