<svg width="693" height="306" viewBox="0 0 693 306" fill="none" xmlns="http://www.w3.org/2000/svg">
<path d="M203.033 177.51C202.793 176.43 202.566 175.409 202.564 174.443C202.56 173.205 202.589 171.918 202.616 170.673C202.783 163.028 202.957 155.122 196.483 150.573C193.143 148.226 182.771 136.5 173.619 126.155C163.287 114.476 156.844 107.251 154.663 105.946C150.569 103.496 140.476 103.442 129.611 103.609C126.504 103.657 123.569 103.702 122.611 103.553C118.889 102.975 115.782 108.525 111.531 123.348C111.379 123.879 111.222 124.429 111.179 124.551L110.946 125.189L111.19 125.823C111.808 127.425 113.606 128.177 114.833 128.673C114.938 129.218 115.176 129.75 115.539 130.231C116.455 131.442 118.042 132.215 119.865 132.363C121.408 133.344 123.511 133.304 124.185 133.26C124.787 133.221 125.683 133.103 126.514 132.761C128.815 133.948 132.638 133.988 135.504 133.133C138.059 132.37 139.791 130.987 140.516 129.167C140.679 129.234 140.843 129.304 140.99 129.366C143.071 130.249 146.358 131.643 149.857 130.574C150.598 131.86 151.575 133.372 152.655 135.042C155.199 138.975 158.364 143.87 158.75 146.565C159.019 148.444 159.106 151.35 159.19 154.161C159.256 156.379 159.319 158.25 159.428 159.794C141.03 148.513 130.404 151.037 122.409 155.132C113.696 159.595 108.908 169.146 108.908 171.498L108.906 171.927C108.786 192.994 110.272 193.92 111.356 194.596C113.28 195.795 128.973 203.017 139.162 203.042C139.525 203.042 139.886 203.043 140.246 203.043C155.957 203.043 169.542 202.107 187.01 192.49C196.757 189.259 203.55 184.556 203.55 181.029C203.55 179.833 203.287 178.652 203.033 177.51ZM155.713 133.073C154.297 130.884 152.96 128.815 152.33 127.485L152.143 127.089C152.25 126.852 152.34 126.61 152.403 126.367C152.698 125.24 152.598 124.153 152.401 123.145C152.299 122.639 152.167 122.147 152.025 121.663L151.815 120.941C151.752 120.7 151.676 120.461 151.678 120.211C151.619 120.457 151.639 120.717 151.646 120.968L151.689 121.721C151.717 122.22 151.735 122.716 151.721 123.204C151.694 124.176 151.533 125.136 151.125 125.888C151.109 125.919 151.09 125.947 151.073 125.977L149.809 126.669C147.245 128.073 144.567 126.938 142.414 126.024C140.84 125.357 139.597 124.83 138.4 125.524C138.386 125.532 138.368 125.545 138.353 125.554C138.114 125.404 137.869 125.274 137.624 125.166C136.743 124.78 135.844 124.607 134.995 124.47C134.908 124.456 134.819 124.442 134.732 124.428L134.734 124.416C134.711 124.416 134.69 124.417 134.667 124.416C134.585 124.402 134.509 124.388 134.444 124.374C134.441 124.353 134.437 124.332 134.434 124.311C134.385 123.952 134.393 123.523 134.408 123.111C134.442 122.328 134.518 121.533 134.61 120.744L137.914 120.55L134.426 120.346L134.271 120.337L134.225 120.511C134.006 121.342 133.807 122.173 133.651 123.028C133.577 123.46 133.502 123.881 133.498 124.373C133.499 124.411 133.5 124.449 133.502 124.489C133.423 124.499 133.345 124.509 133.266 124.522C133.025 124.566 132.785 124.623 132.555 124.714C132.331 124.805 132.092 124.947 131.999 125.17C132.159 124.993 132.39 124.951 132.607 124.935C132.83 124.924 133.053 124.944 133.275 124.976C133.408 124.997 133.541 125.024 133.673 125.053C133.709 125.101 133.755 125.152 133.826 125.205C133.939 125.28 134.017 125.309 134.081 125.336C134.337 125.435 134.531 125.486 134.74 125.553C135.548 125.798 136.31 126.07 136.949 126.466C137.106 126.562 137.252 126.666 137.385 126.775C137.322 126.955 137.27 127.151 137.244 127.376C137.1 128.613 135.577 129.291 134.683 129.584C133.268 130.049 131.812 130.15 130.612 130.076C130.402 130.041 130.193 130.002 129.982 129.969C129.621 129.913 129.257 129.864 128.892 129.816C128.43 129.694 128.103 129.547 127.972 129.407L127.528 128.879C127.528 128.863 127.526 128.847 127.524 128.831C127.489 128.379 127.465 127.921 127.444 127.463C127.363 125.627 127.332 123.779 127.3 121.932L127.253 119.161C127.228 118.237 127.235 117.311 127.145 116.39C127.158 117.312 127.075 118.234 127.025 119.156L126.843 121.921C126.722 123.766 126.6 125.61 126.528 127.466C126.525 127.557 126.525 127.649 126.522 127.741L125.214 129.367C124.569 129.759 122.558 129.734 121.895 129.353L123.998 113.705L120.326 128.749C119.179 128.701 118.568 128.229 118.428 128.023C118.582 127.354 118.394 126.845 118.063 126.45L121.079 113.345L116.661 125.5C116.519 125.437 116.384 125.383 116.268 125.335C115.952 125.208 115.336 124.959 114.923 124.722C114.956 124.608 114.991 124.484 115.03 124.346C117.971 114.09 119.989 109.938 121.14 108.258C121.107 108.344 121.072 108.429 121.044 108.517C120.958 108.773 120.897 109.037 120.859 109.306C120.819 109.574 120.798 109.846 120.824 110.118C120.855 110.657 121.035 111.206 121.389 111.591C121.255 111.088 121.267 110.606 121.35 110.143C121.442 109.681 121.589 109.234 121.795 108.81C121.894 108.598 122.005 108.391 122.123 108.199C122.147 108.162 122.17 108.123 122.195 108.088C122.205 108.091 122.213 108.092 122.225 108.094C122.682 108.19 123.18 108.317 123.662 108.428L123.739 108.445L123.778 108.443C124.365 108.421 124.953 108.371 125.541 108.309C126.128 108.242 126.716 108.156 127.304 108.017C126.716 107.878 126.128 107.792 125.541 107.725C124.98 107.665 124.419 107.619 123.857 107.595C123.378 107.443 122.912 107.306 122.393 107.206C122.326 107.194 122.253 107.182 122.171 107.173L122.151 107.171C122.158 107.167 122.167 107.161 122.174 107.158C123.484 107.334 126.096 107.294 129.666 107.239C136.99 107.127 149.247 106.939 152.789 109.059C154.598 110.141 163.252 119.925 170.888 128.557C180.627 139.565 190.696 150.948 194.386 153.541C199.275 156.976 199.13 163.591 198.977 170.594C198.954 171.616 198.935 172.665 198.929 173.708C198.788 174.195 198.62 174.667 198.414 175.103C198.099 175.764 197.695 176.344 197.22 176.716C196.747 177.091 196.218 177.262 195.591 177.237C195.279 177.226 194.947 177.16 194.61 177.057C194.442 177.003 194.273 176.945 194.103 176.872C194.068 176.856 194.002 176.832 193.992 176.824C193.97 176.813 193.951 176.808 193.921 176.79C193.868 176.762 193.802 176.72 193.737 176.676C193.465 176.49 193.164 176.23 192.874 175.958C192.582 175.684 192.293 175.39 192.007 175.088C191.436 174.484 190.879 173.847 190.331 173.199C188.143 170.597 186.074 167.848 184.033 165.088C181.995 162.321 179.995 159.521 178.014 156.708C174.052 151.079 170.163 145.394 166.288 139.699L160.479 131.152L157.557 126.89L156.075 124.772C155.571 124.074 155.08 123.364 154.523 122.707C155.057 123.382 155.524 124.107 156.004 124.821L157.414 126.985L160.192 131.34L165.713 140.074C169.172 145.538 172.648 150.995 176.187 156.414C176.464 157.147 176.74 157.881 176.999 158.615C177.36 159.65 177.71 160.688 177.924 161.741C178.141 162.792 178.18 163.862 177.972 164.91C177.769 165.958 177.355 166.973 176.888 167.961C176.658 168.458 176.399 168.943 176.145 169.431C176.021 169.68 175.907 169.943 175.787 170.199L175.699 170.391L175.634 170.593L175.505 170.997C175.185 172.08 175.118 173.223 175.244 174.331C175.366 175.441 175.669 176.518 176.046 177.558C176.223 178.041 176.413 178.518 176.607 178.992C173.781 176.463 170.702 172.724 168.116 169.288C167.877 168.359 167.759 167.402 167.725 166.445C167.673 165.178 167.771 163.917 167.849 162.628C167.875 161.982 167.936 161.327 167.765 160.612C167.682 160.286 167.59 159.97 167.496 159.653L167.182 158.728C166.293 156.296 165.275 153.935 164.237 151.582C163.682 150.328 163.117 149.081 162.546 147.835C162.493 147.191 162.43 146.59 162.353 146.051C161.854 142.57 158.592 137.525 155.713 133.073ZM193.675 185.786C190.925 185.195 185.261 183.814 180.264 181.563C179.174 181.072 177.964 180.198 176.703 179.078C176.512 178.561 176.325 178.043 176.153 177.521C175.815 176.474 175.553 175.399 175.47 174.31C175.385 173.222 175.489 172.122 175.831 171.098C175.99 170.579 176.243 170.105 176.493 169.624C176.766 169.14 177.044 168.66 177.295 168.162C177.804 167.173 178.272 166.142 178.528 165.026C178.792 163.914 178.788 162.735 178.596 161.619C178.455 160.783 178.24 159.974 178.002 159.176C179.528 161.487 181.064 163.792 182.634 166.078C184.595 168.923 186.578 171.751 188.735 174.497C189.278 175.183 189.833 175.862 190.422 176.53C190.718 176.864 191.023 177.195 191.348 177.521C191.676 177.848 192.014 178.17 192.443 178.488C192.553 178.568 192.667 178.647 192.801 178.726C192.862 178.764 192.941 178.804 193.015 178.842C193.1 178.887 193.136 178.899 193.198 178.928C193.367 179.008 193.547 179.074 193.726 179.141C194.564 180.795 195.605 183.379 195.227 184.919C194.749 185.203 194.233 185.492 193.675 185.786ZM112.546 171.948L112.546 171.823C112.854 171.458 113.18 171.098 113.524 170.75C114.367 169.898 115.278 169.092 116.223 168.327C118.115 166.799 120.149 165.43 122.277 164.231C126.53 161.85 131.229 160.129 136.107 159.762C138.539 159.578 141.002 159.76 143.372 160.358C144.558 160.655 145.718 161.052 146.84 161.549C147.986 162.032 149.122 162.537 150.276 163.001C152.579 163.939 154.913 164.808 157.3 165.514C157.899 165.685 158.495 165.862 159.105 165.992C159.409 166.058 159.709 166.143 160.016 166.194L160.937 166.354C161.245 166.398 161.557 166.42 161.866 166.454C162.176 166.478 162.49 166.473 162.8 166.472L162.972 166.456L163.43 166.763C162.677 171.263 158.948 173.12 153.915 175.624C152.051 176.551 149.94 177.601 147.796 178.89C139.13 184.101 134.163 181.858 128.413 179.259C124.151 177.334 119.368 175.175 112.544 175.801C112.538 174.605 112.538 173.325 112.546 171.948ZM163.786 163.226L163.544 162.743C163.059 161.774 162.92 157.127 162.828 154.052C162.804 153.263 162.78 152.468 162.752 151.685C162.835 151.846 162.922 152.007 163.005 152.168C164.173 154.441 165.323 156.729 166.334 159.057L166.69 159.933C166.795 160.224 166.9 160.52 166.993 160.808C167.165 161.339 167.158 161.981 167.167 162.611C167.165 163.881 167.141 165.185 167.271 166.476C167.341 167.209 167.462 167.941 167.643 168.655C166.098 166.579 164.756 164.654 163.786 163.226ZM124.072 158.362C131.995 154.304 141.939 152.306 160.899 165.06L162.903 166.408L162.798 166.415C162.49 166.407 162.18 166.402 161.873 166.369C161.567 166.326 161.259 166.294 160.955 166.241L160.046 166.055C159.743 165.996 159.446 165.901 159.146 165.826C158.545 165.679 157.957 165.485 157.367 165.297C155.015 164.522 152.719 163.587 150.454 162.584C149.32 162.087 148.203 161.548 147.077 161.033C145.946 160.49 144.762 160.044 143.549 159.7C141.123 159.008 138.577 158.742 136.054 158.856C133.527 158.96 131.027 159.439 128.611 160.161C126.195 160.889 123.861 161.87 121.626 163.034C119.393 164.204 117.254 165.55 115.239 167.078C114.927 167.316 114.619 167.559 114.313 167.806C116.141 164.788 119.383 160.763 124.072 158.362ZM112.559 177.627C118.972 176.997 123.386 178.981 127.661 180.913C130.99 182.416 134.215 183.873 138.067 183.873C139.304 183.873 140.608 183.72 141.999 183.372C141.794 183.641 141.589 183.914 141.38 184.18C140.529 185.263 139.646 186.314 138.705 187.312C136.827 189.309 134.721 191.098 132.374 192.521C131.204 193.241 129.961 193.837 128.679 194.333C128.041 194.595 127.379 194.784 126.721 194.99C126.052 195.155 125.384 195.336 124.7 195.441C124.134 195.561 123.558 195.614 122.982 195.677C118.476 194.031 114.768 192.325 113.57 191.679C113.332 190.998 112.679 188.17 112.559 177.627ZM123.84 195.985C124.15 195.964 124.46 195.937 124.768 195.889C125.472 195.82 126.163 195.673 126.859 195.541C127.544 195.367 128.237 195.208 128.907 194.975C130.255 194.536 131.573 193.988 132.823 193.311C135.332 191.969 137.62 190.231 139.674 188.271C140.703 187.292 141.675 186.255 142.607 185.193C143.073 184.663 143.528 184.122 143.977 183.592C144.202 183.328 144.426 183.061 144.645 182.818C144.757 182.688 144.863 182.583 144.967 182.475C145.021 182.416 145.054 182.4 145.096 182.359L145.104 182.351C145.088 182.362 145.071 182.371 145.051 182.371L145.041 182.345C146.208 181.853 147.435 181.227 148.736 180.445C150.817 179.193 152.805 178.205 154.727 177.248C159.695 174.777 163.754 172.755 164.998 168.138C168.561 173.066 173.671 179.49 177.903 182.306C177.579 182.325 177.256 182.363 176.935 182.432C175.957 182.641 175.059 183.12 174.243 183.68C172.619 184.827 171.184 186.19 169.73 187.518L167.565 189.527C166.841 190.185 166.127 190.893 165.39 191.493C163.9 192.712 162.159 193.606 160.376 194.362C156.785 195.856 152.956 196.762 149.116 197.502C145.269 198.235 141.378 198.761 137.477 199.191L137.495 199.337C133.312 199.002 128.258 197.554 123.84 195.985ZM185.707 189.095L185.545 189.148L185.394 189.231C171.207 197.072 159.622 198.926 147.18 199.316C147.92 199.16 148.66 199.004 149.398 198.834C153.257 197.934 157.111 196.869 160.745 195.193C162.549 194.344 164.317 193.351 165.832 192.012C166.207 191.672 166.576 191.331 166.916 190.98L167.96 189.935L170.045 187.845C171.444 186.465 172.822 185.053 174.375 183.865C175.156 183.284 176.011 182.785 176.961 182.543C177.302 182.455 177.651 182.402 178.002 182.373C178.522 182.712 179.027 182.998 179.514 183.218C183.577 185.048 187.976 186.303 191.052 187.052C189.503 187.739 187.73 188.43 185.707 189.095ZM196.209 184.311C196.244 182.744 195.532 180.844 194.893 179.468C195.074 179.5 195.257 179.527 195.445 179.541C195.993 179.585 196.575 179.538 197.132 179.38C197.69 179.222 198.218 178.957 198.667 178.623C198.941 178.421 199.184 178.199 199.407 177.965C199.431 178.076 199.456 178.188 199.48 178.296C199.694 179.264 199.898 180.18 199.909 180.964C199.74 181.491 198.602 182.762 196.209 184.311ZM145.11 182.349C145.108 182.351 145.105 182.35 145.104 182.351L145.125 182.332C145.13 182.329 145.116 182.346 145.11 182.349ZM132.339 110.444C132.926 110.511 133.514 110.597 134.102 110.736C133.514 110.875 132.926 110.961 132.339 111.028C131.751 111.09 131.163 111.141 130.575 111.163L130.536 111.164L130.459 111.147C129.978 111.036 129.48 110.91 129.022 110.813C129.011 110.811 129.003 110.81 128.992 110.808C128.968 110.842 128.945 110.882 128.92 110.919C128.803 111.111 128.691 111.318 128.592 111.53C128.387 111.954 128.239 112.401 128.147 112.863C128.064 113.326 128.052 113.808 128.187 114.311C127.833 113.925 127.653 113.377 127.621 112.837C127.595 112.565 127.617 112.293 127.657 112.026C127.695 111.757 127.755 111.493 127.841 111.237C127.924 110.979 128.031 110.732 128.16 110.484C128.195 110.422 128.225 110.362 128.268 110.297L128.329 110.202L128.415 110.089C128.412 110.087 128.486 110.011 128.548 109.973C128.615 109.926 128.681 109.902 128.749 109.894C128.783 109.889 128.818 109.886 128.852 109.885L128.892 109.887L128.969 109.892C129.051 109.902 129.124 109.913 129.191 109.926C129.709 110.026 130.176 110.163 130.655 110.315C131.216 110.338 131.777 110.385 132.339 110.444ZM129.226 109.555C128.638 109.618 128.05 109.668 127.463 109.69L127.423 109.692L127.346 109.674C126.865 109.564 126.367 109.438 125.91 109.341C125.898 109.338 125.89 109.338 125.879 109.336C125.855 109.37 125.832 109.409 125.808 109.446C125.69 109.638 125.578 109.845 125.48 110.058C125.274 110.481 125.127 110.929 125.034 111.39C124.952 111.853 124.939 112.335 125.074 112.838C124.72 112.453 124.54 111.904 124.508 111.365C124.482 111.092 124.504 110.82 124.544 110.553C124.582 110.285 124.642 110.02 124.728 109.764C124.811 109.506 124.919 109.258 125.047 109.011C125.083 108.949 125.112 108.889 125.155 108.825L125.216 108.729L125.302 108.617C125.299 108.614 125.373 108.538 125.435 108.5C125.502 108.454 125.569 108.429 125.637 108.421C125.671 108.416 125.705 108.413 125.739 108.412L125.779 108.414L125.856 108.42C125.938 108.429 126.011 108.44 126.078 108.453C126.597 108.553 127.063 108.69 127.543 108.842C128.104 108.865 128.665 108.912 129.226 108.972C129.813 109.039 130.402 109.125 130.989 109.264C130.402 109.403 129.813 109.489 129.226 109.555Z" fill="white"/>
<path d="M211.681 64.2274C216.517 56.0224 221.331 48.3249 226.395 40.3489C235.362 26.2752 235.801 25.4079 237.495 24.6361L237.572 24.6863C237.547 26.594 235.96 28.6248 234.2 31.3024C226.996 42.2103 220.366 52.0536 212.871 62.5785C212.114 63.6279 211.681 64.2274 211.681 64.2274Z" fill="white"/>
<path d="M54.5027 190.689C45.7755 194.452 37.3405 197.831 28.4964 201.303C12.9277 207.385 12.0624 207.826 10.2387 207.452L10.2061 207.366C11.3713 205.819 13.9616 205.09 16.8428 204.011C29.107 199.449 40.2839 195.405 52.5668 191.32C53.7987 190.919 54.5027 190.689 54.5027 190.689Z" fill="white"/>
<path d="M220.013 216.675C227.189 222.927 233.875 229.067 240.81 235.523C252.939 246.852 253.784 247.505 254.233 249.315L254.169 249.382C252.267 248.998 250.492 246.98 248.276 244.85C238.814 235.718 230.37 227.417 221.417 218.147C220.524 217.211 220.013 216.675 220.013 216.675Z" fill="white"/>
<path d="M70.2352 199.053C62.1371 204.009 54.2907 208.535 46.0019 213.24C31.4216 221.484 30.6596 222.023 28.8038 221.911L28.7593 221.831C29.6779 220.161 32.025 219.116 34.8516 217.57C46.3418 211.319 56.8139 205.742 68.4087 199.951C69.5711 199.379 70.2352 199.053 70.2352 199.053Z" fill="white"/>
<path d="M180.553 50.0825C182.514 40.7852 184.619 31.9634 186.878 22.7737C190.767 7.06469 190.984 5.6602 192.383 4.35315L192.473 4.37622C193.068 6.22257 192.163 8.77049 191.388 11.7189C188.06 24.2768 184.912 35.7444 181.154 48.1415C180.771 49.3767 180.553 50.0825 180.553 50.0825Z" fill="white"/>
<path d="M47.6734 144.538C38.1812 144.207 29.1305 143.655 19.6165 143.009C3.38559 141.88 2.0047 141.907 0.478516 140.76L0.485971 140.668C2.17447 139.783 4.70281 140.204 7.92418 140.474C20.9655 141.595 32.8086 142.721 45.6534 144.281C46.9387 144.444 47.6734 144.538 47.6734 144.538Z" fill="white"/>
<path d="M171.753 64.4846C173.203 55.0971 174.822 46.1804 176.578 36.8726C179.625 20.8632 179.758 19.5463 181.07 18.1803L181.16 18.1984C181.855 20.0093 181.092 22.5944 180.478 25.5891C177.836 38.3307 175.323 49.9276 172.247 62.5137C171.933 63.7679 171.753 64.4846 171.753 64.4846Z" fill="white"/>
<path d="M172.904 83.9202C175.003 74.6849 177.241 65.9072 179.653 56.7127C183.913 40.5863 184.067 39.6282 185.445 38.3797L185.534 38.4041C186.099 40.2554 185.162 42.7722 184.336 45.7292C180.817 58.2188 177.486 69.6506 173.535 81.9888C173.133 83.2179 172.904 83.9202 172.904 83.9202Z" fill="white"/>
<path d="M197.386 55.8754C200.877 47.0479 204.437 38.6938 208.208 30.0092C214.873 14.7318 215.176 13.7943 216.73 12.7689L216.814 12.8067C217.09 14.7222 215.78 17.0673 214.512 19.8644C209.09 31.7581 204.083 42.4847 198.305 54.0622C197.72 55.2161 197.386 55.8754 197.386 55.8754Z" fill="white"/>
<path d="M251.86 191.802C260.851 194.862 269.353 198.007 278.269 201.374C293.551 207.175 294.816 207.534 295.933 209.058L295.899 209.144C294.025 209.502 291.726 208.368 288.723 207.18C276.557 202.334 265.563 197.839 253.719 192.632C252.536 192.104 251.86 191.802 251.86 191.802Z" fill="white"/>
<path d="M198.017 83.1126C202.733 74.8619 207.442 67.1026 212.41 59.0408C221.209 44.8173 221.619 43.9746 223.299 43.1817L223.377 43.2309C223.378 45.1345 221.829 47.1728 220.094 49.8912C213.077 60.8303 206.568 70.7826 199.185 81.448C198.442 82.5074 198.017 83.1126 198.017 83.1126Z" fill="white"/>
<path d="M164.288 75.4311C165.117 65.9738 166.143 56.9839 167.284 47.5626C169.31 31.0649 169.336 30.0424 170.535 28.6163L170.626 28.6285C171.444 30.3999 170.842 33.0686 170.433 36.048C168.639 48.9128 166.891 60.6792 164.652 73.4322C164.42 74.7042 164.288 75.4311 164.288 75.4311Z" fill="white"/>
<path d="M63.2633 152.014C53.763 152.322 44.7017 152.38 35.1668 152.376C18.9479 152.34 17.5254 152.463 15.9204 151.418L15.9217 151.326C17.5508 150.328 20.1199 150.58 23.3298 150.632C36.3663 150.873 48.2712 151.199 61.2305 151.893C62.524 151.97 63.2633 152.014 63.2633 152.014Z" fill="white"/>
<path d="M70.0875 219.198C62.9246 225.415 55.9524 231.155 48.5328 237.178C35.8364 247.449 34.8843 248.363 33.0046 248.561L32.9473 248.489C33.5837 246.672 35.7928 245.216 38.2513 243.284C48.5555 235.223 57.956 228.004 68.4347 220.385C69.4864 219.629 70.0875 219.198 70.0875 219.198Z" fill="white"/>
<path d="M252.043 113.918C260.71 109.975 269.078 106.43 277.832 102.79C292.924 96.5456 294.095 95.9346 295.963 96.2792L295.998 96.3647C294.854 97.9477 292.22 98.7427 289.429 99.8514C277.301 104.64 266.19 108.913 253.966 113.249C252.742 113.675 252.043 113.918 252.043 113.918Z" fill="white"/>
<path d="M188.755 221.818C193.468 230.031 197.761 237.987 202.232 246.412C209.84 260.806 210.57 261.935 210.397 263.823L210.315 263.865C208.672 262.899 207.698 260.534 206.231 257.661C200.358 246.095 195.057 235.423 189.6 223.667C189.062 222.491 188.755 221.818 188.755 221.818Z" fill="white"/>
<path d="M231.147 145.946C240.583 144.633 249.612 143.617 259.048 142.619C275.227 140.935 276.583 140.669 278.287 141.538L278.296 141.629C276.786 142.792 274.222 142.813 271.003 143.102C258.036 144.238 246.153 145.173 233.182 145.851C231.887 145.912 231.147 145.946 231.147 145.946Z" fill="white"/>
<path d="M104.711 201.171C98.2453 208.112 91.9026 214.574 85.1847 221.325C73.3698 233.158 72.7697 233.893 70.9508 234.283L70.8862 234.217C71.3215 232.364 73.2978 230.731 75.6084 228.481C84.9364 219.44 93.5675 211.22 103.193 202.525C104.159 201.663 104.711 201.171 104.711 201.171Z" fill="white"/>
<path d="M168.394 221.106C170.82 230.291 172.899 239.085 175.02 248.344C178.716 264.6 179.026 265.528 178.382 267.271L178.291 267.29C176.939 265.917 176.608 263.296 175.959 260.243C173.268 247.441 170.938 235.834 168.729 223.11C168.516 221.835 168.394 221.106 168.394 221.106Z" fill="white"/>
<path d="M210.48 224.8C216.722 231.937 222.505 238.909 228.532 246.279C238.79 258.865 239.759 259.857 239.962 261.754L239.89 261.811C238.082 261.184 236.65 259.035 234.665 256.527C226.568 246.254 219.31 236.872 211.672 226.447C210.914 225.399 210.48 224.8 210.48 224.8Z" fill="white"/>
<path d="M85.9195 219.814C79.4334 226.803 73.0713 233.306 66.4303 240.005C54.6841 251.812 54.0437 252.595 52.2206 252.988L52.1558 252.923C52.5955 251.035 54.6774 249.318 56.8674 247.178C66.1967 238.102 74.8008 229.879 84.4043 221.172C85.3686 220.308 85.9195 219.814 85.9195 219.814Z" fill="white"/>
<path d="M231.256 165.457C240.705 166.477 249.678 167.683 259.127 169.019C275.294 171.333 276.625 171.409 278.05 172.652L278.036 172.743C276.253 173.518 273.621 172.872 270.603 172.397C257.794 170.35 246.023 168.364 233.252 165.861C231.982 165.604 231.256 165.457 231.256 165.457Z" fill="white"/>
<path d="M236.695 120.167C245.353 116.24 253.718 112.706 262.496 109.067C277.539 102.862 278.758 102.227 280.635 102.575L280.669 102.661C279.55 104.206 277.085 104.957 274.097 106.14C262.04 110.885 250.885 115.164 238.619 119.5C237.395 119.925 236.695 120.167 236.695 120.167Z" fill="white"/>
<path d="M186.095 240.251C189.826 248.992 193.168 257.428 196.594 266.249C202.606 281.81 203.044 282.677 202.659 284.494L202.573 284.526C201.026 283.354 200.306 280.753 199.245 277.888C194.746 265.65 190.745 254.458 186.717 242.185C186.321 240.954 186.095 240.251 186.095 240.251Z" fill="white"/>
<path d="M155.932 244.17C156.6 253.617 157.002 262.662 157.359 272.162C157.943 288.436 158.108 289.756 157.13 291.383L157.038 291.385C155.958 289.772 156.127 287.074 156.061 284.027C155.808 270.983 155.683 259.136 155.887 246.201C155.916 244.909 155.932 244.17 155.932 244.17Z" fill="white"/>
<path d="M61.561 140.079C52.0907 139.181 43.0782 138.089 33.6458 136.88C17.0262 134.722 16.0921 134.696 14.6768 133.494L14.6898 133.403C16.4289 132.62 18.9284 133.191 22.1262 133.652C35.1008 135.552 46.839 137.38 59.5599 139.701C60.8334 139.941 61.561 140.079 61.561 140.079Z" fill="white"/>
<path d="M65.1087 167.076C55.7847 168.953 46.8371 170.513 37.4617 172.082C21.3223 174.755 20.0543 175.077 18.3227 174.323L18.3086 174.232C19.7489 172.978 22.3243 172.801 25.4985 172.322C38.4705 170.39 50.2344 168.747 63.0835 167.293C64.3723 167.154 65.1087 167.076 65.1087 167.076Z" fill="white"/>
<path d="M93.6455 239.733C88.6067 247.74 83.5848 255.276 78.2421 263.174C68.8703 276.978 68.4046 277.836 66.689 278.558L66.6133 278.506C66.6955 276.556 68.4572 274.448 70.1767 271.991C77.6977 261.293 84.596 251.667 92.4085 241.346C93.1956 240.32 93.6455 239.733 93.6455 239.733Z" fill="white"/>
<path d="M129.374 70.5888C126.274 61.5696 123.56 52.9395 120.784 43.9023C116.024 28.3073 115.531 27.0831 116.055 25.2682L116.144 25.2424C117.609 26.5293 118.142 29.2025 118.982 32.103C122.603 44.6988 125.771 56.1095 128.893 68.6147C129.199 69.8709 129.374 70.5888 129.374 70.5888Z" fill="white"/>
<path d="M184.609 77.18C187.78 68.2389 191.033 59.7767 194.497 50.9446C200.475 35.7812 200.853 34.5104 202.396 33.4116L202.481 33.4463C202.821 35.3209 201.655 37.6074 200.433 40.5817C195.457 52.623 190.823 63.5586 185.462 75.3356C184.919 76.5093 184.609 77.18 184.609 77.18Z" fill="white"/>
<path d="M208.464 106.244C215.387 99.7154 222.151 93.6636 229.257 87.3919C241.754 76.4002 242.455 75.6521 244.302 75.3802L244.362 75.4498C243.798 77.3021 241.608 78.8768 239.278 80.8687C229.383 89.2888 220.239 96.9322 210.067 104.99C209.047 105.788 208.464 106.244 208.464 106.244Z" fill="white"/>
<path d="M72.027 134.61C62.6623 132.932 53.7749 131.098 44.4741 129.113C28.5127 125.678 27.193 125.514 25.8521 124.169L25.8725 124.079C27.7128 123.428 30.3126 124.264 33.2625 124.943C45.9339 127.886 57.518 130.685 70.0642 134.068C71.3133 134.413 72.027 134.61 72.027 134.61Z" fill="white"/>
<path d="M126.076 255.409C124.039 264.663 121.864 273.44 119.512 282.662C115.453 298.46 115.237 299.756 113.845 301.033L113.756 301.01C113.177 299.159 114.102 296.627 114.905 293.677C118.36 281.085 121.597 269.694 125.458 257.345C125.851 256.113 126.076 255.409 126.076 255.409Z" fill="white"/>
<path d="M215.501 90.2223C221.836 83.1399 228.051 76.548 234.616 69.6785C246.174 57.626 246.772 56.863 248.585 56.4368L248.651 56.501C248.253 58.3615 246.312 60.0331 244.045 62.3307C234.907 71.5536 226.441 79.9486 216.992 88.8372C216.043 89.7186 215.501 90.2223 215.501 90.2223Z" fill="white"/>
<path d="M208.32 205.721C215.482 211.987 222.157 218.143 229.077 224.612C241.257 236.036 242.028 236.628 242.471 238.432L242.407 238.498C240.506 238.111 238.736 236.089 236.524 233.955C227.169 224.888 218.705 216.538 209.721 207.196C208.829 206.257 208.32 205.721 208.32 205.721Z" fill="white"/>
<path d="M58.1706 121.361C49.0379 118.77 40.3792 116.069 31.2994 113.167C15.3707 108.046 14.4335 107.844 13.2603 106.406L13.2895 106.319C15.1856 105.853 17.6891 106.942 20.5574 107.909C32.8982 112.099 44.1424 116.029 56.271 120.628C57.4798 121.094 58.1706 121.361 58.1706 121.361Z" fill="white"/>
<path d="M215.498 138.811C224.657 136.237 233.457 134.011 242.688 131.742C258.912 127.784 259.844 127.457 261.604 128.07L261.625 128.16C260.287 129.514 257.755 129.882 254.599 130.605C241.892 133.486 230.257 136.017 217.501 138.443C216.226 138.677 215.498 138.811 215.498 138.811Z" fill="white"/>
<path d="M86.6408 150.995C77.1407 151.12 68.073 151.003 58.5426 150.814C41.8102 150.456 40.8552 150.53 39.3184 149.486L39.3214 149.394C41.0046 148.407 43.7157 148.735 46.7415 148.843C59.8269 149.337 71.7037 149.892 84.6106 150.834C85.9026 150.936 86.6408 150.995 86.6408 150.995Z" fill="white"/>
<path d="M150.505 216.314C150.488 225.784 150.233 234.838 149.901 244.336C149.307 260.516 149.382 261.926 148.28 263.49L148.188 263.485C147.246 261.833 147.583 259.303 147.747 256.076C148.435 243.119 149.171 231.248 150.314 218.337C150.436 217.05 150.505 216.314 150.505 216.314Z" fill="white"/>
<path d="M87.5688 90.2681C80.3894 84.0253 73.6951 77.889 66.7542 71.4398C54.5468 60.0582 53.7672 59.4636 53.3188 57.6601L53.3825 57.5936C55.2968 57.9774 57.0973 60.0263 59.2796 62.1194C68.6646 71.1606 77.1551 79.4867 86.1632 88.7978C87.0578 89.7335 87.5688 90.2681 87.5688 90.2681Z" fill="white"/>
<path d="M152.927 258.335C153.303 267.828 153.423 276.893 153.484 286.358C153.563 303.027 153.664 303.999 152.657 305.562L152.565 305.561C151.537 303.918 151.789 301.241 151.818 298.177C151.969 285.161 152.214 273.293 152.82 260.364C152.888 259.073 152.927 258.335 152.927 258.335Z" fill="white"/>
<path d="M191.843 97.3158C196.838 89.2499 201.799 81.6904 207.077 73.7648C216.143 60.204 216.775 59.0478 218.52 58.2983L218.596 58.3502C218.529 60.253 216.908 62.238 215.079 64.891C207.698 75.5505 200.832 85.2831 193.068 95.6932C192.288 96.7258 191.843 97.3158 191.843 97.3158Z" fill="white"/>
<path d="M181.178 91.9601C184.663 83.1578 188.206 74.8493 192.009 66.098C198.652 50.8852 198.98 49.8874 200.538 48.8609L200.622 48.8987C200.899 50.8262 199.565 53.2048 198.317 55.9557C192.92 67.7845 187.888 78.5559 182.097 90.1475C181.512 91.3011 181.178 91.9601 181.178 91.9601Z" fill="white"/>
<path d="M208.559 193.479C216.446 198.732 223.849 203.945 231.617 209.497C244.915 219.034 246.025 219.694 246.709 221.449L246.655 221.523C244.73 221.388 242.741 219.645 240.226 217.787C229.73 209.996 220.25 202.828 210.141 194.758C209.134 193.944 208.559 193.479 208.559 193.479Z" fill="white"/>
<path d="M260.18 151.624C269.684 151.042 278.763 150.725 288.254 150.457C305.008 150.013 305.935 149.893 307.52 150.862L307.522 150.954C305.899 152.014 303.214 151.822 300.137 151.86C287.127 151.993 275.208 152.01 262.215 151.687C260.92 151.647 260.18 151.624 260.18 151.624Z" fill="white"/>
<path d="M99.0337 64.9227C93.6726 57.1044 88.7479 49.5037 83.6286 41.4822C74.6404 27.3453 74.0745 26.6302 74.0947 24.7776L74.1731 24.7291C75.8891 25.561 77.0498 27.8423 78.7412 30.5878C85.5431 41.6828 91.667 51.8741 98.0436 63.1473C98.6737 64.2772 99.0337 64.9227 99.0337 64.9227Z" fill="white"/>
<path d="M223.208 155.266C232.743 155.091 241.845 155.162 251.306 155.299C267.609 155.562 268.959 155.466 270.537 156.526L270.535 156.618C268.864 157.61 266.172 157.3 263.118 157.208C250.011 156.782 238.138 156.289 225.239 155.416C223.946 155.321 223.208 155.266 223.208 155.266Z" fill="white"/>
<path d="M224.913 75.1187C230.972 67.8289 236.951 61.008 243.269 53.8984C254.183 41.6589 254.93 40.6584 256.748 40.161L256.816 40.223C256.479 42.141 254.469 43.9878 252.426 46.2151C243.54 55.857 235.426 64.5035 226.351 73.6811C225.436 74.596 224.913 75.1187 224.913 75.1187Z" fill="white"/>
<path d="M248.257 144.853C257.668 143.593 266.688 142.623 276.174 141.669C292.423 140.062 293.728 139.813 295.419 140.686L295.427 140.777C293.905 141.937 291.315 141.943 288.127 142.213C275.061 143.29 263.204 144.16 250.292 144.769C248.997 144.823 248.257 144.853 248.257 144.853Z" fill="white"/>
<path d="M224.014 97.1604C231.178 90.8729 238.175 85.0516 245.47 79.0633C258.097 68.7355 259.05 67.806 260.936 67.5968L260.994 67.6685C260.375 69.4681 258.246 70.894 255.718 72.9024C245.471 81.0088 236.099 88.2872 225.66 95.9647C224.612 96.7256 224.014 97.1604 224.014 97.1604Z" fill="white"/>
<path d="M78.4096 78.9884C71.3486 72.6314 64.7671 66.3866 57.9238 59.8045C46.1875 48.4772 45.1534 47.6391 44.729 45.7956L44.7938 45.7302C46.6572 46.1373 48.3211 48.0826 50.6118 50.3569C59.8327 59.552 68.1754 68.0207 77.0299 77.4941C77.9078 78.4451 78.4096 78.9884 78.4096 78.9884Z" fill="white"/>
<path d="M239.241 211.035C247.355 215.995 254.983 220.938 262.905 226.148C276.528 235.139 277.696 235.775 278.451 237.507L278.399 237.583C276.488 237.523 274.482 235.903 271.83 234.098C261.075 226.745 251.312 219.942 240.872 212.251C239.834 211.477 239.241 211.035 239.241 211.035Z" fill="white"/>
<path d="M88.1468 71.1355C81.8914 64.0055 76.0977 57.0427 70.0607 49.6853C59.7213 37.0409 58.8098 36.1021 58.606 34.2281L58.678 34.1707C60.4807 34.7933 61.904 36.92 63.9112 39.4467C71.9843 49.6558 79.274 59.0444 86.9525 69.4899C87.7124 70.5373 88.1468 71.1355 88.1468 71.1355Z" fill="white"/>
<path d="M194.698 250.515C198.803 259.097 202.508 267.396 206.299 276.043C212.823 290.995 213.451 292.153 213.139 294.013L213.054 294.049C211.487 292.963 210.693 290.531 209.445 287.558C204.418 275.503 199.958 264.531 195.402 252.421C194.954 251.208 194.698 250.515 194.698 250.515Z" fill="white"/>
<path d="M60.2521 206.151C52.227 211.209 44.4296 215.844 36.2077 220.655C22.1595 228.843 21.0342 229.641 19.1253 229.551L19.0796 229.471C19.9751 227.791 22.3013 226.718 25.1151 225.13C36.466 218.76 46.9118 213.02 58.4373 207.074C59.5924 206.487 60.2521 206.151 60.2521 206.151Z" fill="white"/>
<path d="M179.958 255.547C182.739 264.633 185.157 273.344 187.635 282.509C191.84 298.173 192.318 299.48 191.727 301.292L191.638 301.315C190.223 299.985 189.783 297.317 189.034 294.362C185.858 281.707 183.071 270.166 180.37 257.536C180.108 256.27 179.958 255.547 179.958 255.547Z" fill="white"/>
<path d="M258.687 136.234C268.007 134.293 276.948 132.674 286.3 131.046C302.728 128.214 303.709 127.946 305.423 128.679L305.438 128.769C303.976 130.06 301.25 130.255 298.261 130.727C285.398 132.729 273.601 134.458 260.71 136.003C259.422 136.15 258.687 136.234 258.687 136.234Z" fill="white"/>
<path d="M238.396 135.411C247.609 133.037 256.454 131.003 265.735 128.934C282.112 125.314 282.987 125.025 284.726 125.674L284.745 125.764C283.377 127.09 280.831 127.403 277.668 128.056C264.84 130.673 253.178 132.944 240.407 135.086C239.128 135.293 238.396 135.411 238.396 135.411Z" fill="white"/>
<path d="M225.528 230.624C232.32 237.283 238.639 243.814 245.176 250.661C256.682 262.755 257.421 263.391 257.76 265.218L257.692 265.281C255.847 264.795 254.266 262.778 252.077 260.411C243.176 250.744 235.241 241.966 226.843 232.175C226.006 231.188 225.528 230.624 225.528 230.624Z" fill="white"/>
<path d="M156.944 48.7255C156.797 39.2057 156.896 30.1166 157.062 20.6976C157.377 4.407 157.288 3.08431 158.351 1.51868L158.443 1.52154C159.415 3.16136 159.12 5.70718 159.012 8.92179C158.545 22.0121 158.015 33.84 157.101 46.7001C157.001 47.9889 156.944 48.7255 156.944 48.7255Z" fill="white"/>
<path d="M114.28 81.6681C109.297 73.5464 104.746 65.6696 100.085 57.4795C91.8578 42.962 91.2972 42.1689 91.4118 40.3147L91.4926 40.2703C93.2033 41.2093 94.3049 43.7025 95.7575 46.352C101.973 57.7499 107.579 68.2501 113.382 79.845C113.954 81.0052 114.28 81.6681 114.28 81.6681Z" fill="white"/>
<path d="M155.453 67.721C155.209 58.2341 155.213 49.1774 155.282 39.6932C155.431 23.1589 155.34 22.057 156.373 20.5021L156.465 20.504C157.47 22.1594 157.182 24.8292 157.111 27.8979C156.78 40.8969 156.374 52.7658 155.589 65.6938C155.503 66.9839 155.453 67.721 155.453 67.721Z" fill="white"/>
<path d="M56.8157 109.082C47.9654 105.517 39.6289 101.901 30.9727 98.0787C15.681 91.2946 14.7714 90.9944 13.7583 89.4394L13.7967 89.3557C15.7317 89.0941 18.105 90.4429 20.8535 91.7091C32.764 97.2274 43.488 102.315 55.0056 108.151C56.1575 108.743 56.8157 109.082 56.8157 109.082Z" fill="white"/>
<path d="M86.9049 115.84C78.3976 111.553 70.4023 107.258 62.0781 102.713C47.4147 94.6758 46.5303 94.3001 45.6509 92.6643L45.6962 92.5842C47.6462 92.4853 49.8977 94.028 52.5301 95.5197C63.8636 101.975 74.1429 107.951 85.1793 114.761C86.2774 115.448 86.9049 115.84 86.9049 115.84Z" fill="white"/>
<path d="M98.9944 79.266C92.9933 71.8965 87.4489 64.7108 81.7101 57.1679C71.8472 44.1584 70.9674 43.1872 70.832 41.3014L70.9062 41.2466C72.7266 41.9511 74.1498 44.2767 75.9417 46.7109C83.637 57.2138 90.5784 66.8666 97.8615 77.578C98.5825 78.6522 98.9944 79.266 98.9944 79.266Z" fill="white"/>
<path d="M65.741 99.3607C57.4247 94.7596 49.5993 90.1588 41.4411 85.2872C27.1187 76.7015 26.2317 76.2826 25.4155 74.6124L25.4639 74.5341C27.409 74.5106 29.5815 76.1233 32.1791 77.7307C43.2208 84.597 53.2772 90.9744 64.0586 98.2158C65.1292 98.9444 65.741 99.3607 65.741 99.3607Z" fill="white"/>
<path d="M75.2212 178.455C66.2973 181.776 57.6998 184.722 48.7073 187.735C32.8149 193.031 31.9588 193.416 30.1596 192.95L30.1313 192.863C31.382 191.367 34.0459 190.764 36.9306 189.848C49.3586 185.931 60.7443 182.453 73.2555 178.987C74.5063 178.648 75.2212 178.455 75.2212 178.455Z" fill="white"/>
<path d="M198.228 230.257C203.367 238.232 208.065 245.958 212.956 254.127C221.28 268.083 222.083 269.189 222.008 271.096L221.928 271.142C220.208 270.246 219.066 267.816 217.53 265.156C211.046 253.869 205.216 243.508 199.166 232.06C198.569 230.913 198.228 230.257 198.228 230.257Z" fill="white"/>
<path d="M234.542 220.174C242.165 225.916 249.28 231.576 256.628 237.5C269.579 247.979 270.424 248.536 270.999 250.307L270.94 250.378C269.004 250.129 267.063 248.21 264.739 246.275C254.714 237.889 245.687 230.199 236.047 221.542C235.089 220.671 234.542 220.174 234.542 220.174Z" fill="white"/>
<path d="M106.652 90.8517C100.579 83.5344 94.963 76.3955 89.1611 68.9163C79.0378 55.8206 78.2851 55.0117 78.1343 53.1523L78.2079 53.097C80.0252 53.7807 81.4593 56.0691 83.2944 58.5138C91.1192 68.9855 98.1381 78.5578 105.504 89.1742C106.235 90.2419 106.652 90.8517 106.652 90.8517Z" fill="white"/>
<path d="M49.1363 170.818C39.8481 172.805 30.9366 174.47 21.5518 176.156C5.22781 179.062 4.16466 179.353 2.44137 178.627L2.42627 178.537C3.84864 177.268 6.40624 177.06 9.59262 176.54C22.5068 174.458 34.2653 172.671 47.1142 171.059C48.4011 170.906 49.1363 170.818 49.1363 170.818Z" fill="white"/>
<path d="M104.452 246.33C100.396 254.918 96.3049 263.02 91.9793 271.445C84.3381 286.266 83.9765 287.178 82.3599 288.101L82.2785 288.058C82.1267 286.129 83.5863 283.873 85.0326 281.163C91.1672 269.728 96.8796 259.301 103.418 248.08C104.076 246.966 104.452 246.33 104.452 246.33Z" fill="white"/>
<path d="M144.371 238.584C143.8 248.065 143.016 257.111 142.135 266.523C140.56 283.06 140.562 284.091 139.401 285.551L139.309 285.541C138.463 283.83 138.952 281.302 139.301 278.119C140.746 265.19 142.171 253.404 144.062 240.592C144.258 239.314 144.371 238.584 144.371 238.584Z" fill="white"/>
<path d="M199.251 213.556C205.351 220.869 210.985 227.998 216.794 235.45C226.79 248.317 227.701 249.303 227.858 251.188L227.785 251.244C225.964 250.563 224.522 248.274 222.685 245.839C214.841 235.393 207.795 225.83 200.404 215.23C199.67 214.165 199.251 213.556 199.251 213.556Z" fill="white"/>
<path d="M225.112 108.016C232.888 102.556 240.45 97.536 248.402 92.335C262.028 83.4563 263.106 82.6058 265.019 82.6008L265.068 82.6784C264.258 84.4014 261.986 85.5902 259.257 87.3136C248.181 94.2764 238.064 100.509 226.879 107.004C225.754 107.648 225.112 108.016 225.112 108.016Z" fill="white"/>
<path d="M88.6638 184.685C80.2643 189.248 72.1698 193.373 63.7281 197.604C48.727 205.092 47.9504 205.585 46.1038 205.378L46.0635 205.295C47.0662 203.677 49.4582 202.755 52.3684 201.354C64.1737 195.7 74.9229 190.669 86.7932 185.488C87.9835 184.977 88.6638 184.685 88.6638 184.685Z" fill="white"/>
<path d="M214.586 239.282C220.438 246.765 225.83 254.045 231.431 261.716C241.024 274.902 241.896 275.908 241.993 277.793L241.918 277.846C240.112 277.106 238.735 274.753 236.992 272.284C229.497 261.621 222.756 251.844 215.686 240.992C214.986 239.904 214.586 239.282 214.586 239.282Z" fill="white"/>
<path d="M115.84 248.158C112.73 257.138 109.538 265.626 106.146 274.465C100.177 289.938 99.8895 290.961 98.3765 292.055L98.2908 292.021C97.9322 290.12 99.1404 287.72 100.286 284.871C105.202 272.724 109.743 261.791 115.001 250.009C115.535 248.831 115.84 248.158 115.84 248.158Z" fill="white"/>
<path d="M222.259 203.775C230.154 209.058 237.56 214.298 245.282 219.842C258.488 229.357 259.662 230.057 260.349 231.827L260.294 231.901C258.39 231.763 256.463 230.073 253.873 228.151C243.428 220.363 233.954 213.167 223.839 205.057C222.833 204.241 222.259 203.775 222.259 203.775Z" fill="white"/>
<path d="M119.959 221.829C116.139 230.573 112.301 238.76 108.229 247.298C101.026 262.337 100.692 263.259 99.103 264.228L99.0202 264.187C98.8117 262.259 100.215 259.946 101.571 257.215C107.385 245.569 112.788 234.984 118.977 223.609C119.602 222.477 119.959 221.829 119.959 221.829Z" fill="white"/>
<path d="M139.131 47.2474C137.426 37.915 136.032 28.9647 134.636 19.5801C132.273 3.50151 131.959 2.17463 132.753 0.45014L132.844 0.437744C134.072 1.89506 134.2 4.45062 134.623 7.64443C136.305 20.5585 137.731 32.325 138.952 45.2235C139.065 46.5115 139.131 47.2474 139.131 47.2474Z" fill="white"/>
<path d="M82.6469 232.258C76.6169 239.616 70.6863 246.476 64.439 253.606C53.3783 266.184 52.8434 266.934 51.0564 267.436L50.9878 267.375C51.3105 265.463 53.2892 263.615 55.3364 261.352C64.144 251.66 72.2156 242.938 81.218 233.706C82.1274 232.784 82.6469 232.258 82.6469 232.258Z" fill="white"/>
<path d="M164.493 235.039C166.158 244.405 167.513 253.391 168.856 262.727C171.209 279.28 171.434 280.184 170.65 281.866L170.558 281.878C169.338 280.415 169.222 277.86 168.814 274.663C167.199 261.797 165.822 249.974 164.662 237.064C164.554 235.775 164.493 235.039 164.493 235.039Z" fill="white"/>
<path d="M148.197 58.0951C147.228 48.6444 146.541 39.603 145.887 30.1617C144.762 13.5025 144.604 12.5629 145.51 10.9435L145.602 10.9384C146.712 12.4872 146.639 15.0447 146.81 18.2619C147.473 31.2581 147.974 43.1235 148.177 56.0637C148.19 57.3565 148.197 58.0951 148.197 58.0951Z" fill="white"/>
<path d="M70.2155 88.8391C62.437 83.3739 55.1552 77.9678 47.5651 72.2523C34.2482 62.1888 33.4093 61.6762 32.7769 59.9282L32.8334 59.8556C34.7332 60.0364 36.6209 61.7694 39.167 63.7508C49.4683 71.8031 58.7612 79.2023 68.6656 87.5214C69.6519 88.3601 70.2155 88.8391 70.2155 88.8391Z" fill="white"/>
<path d="M179.217 225.115C182.813 233.908 186.028 242.403 189.317 251.27C195.043 266.792 195.517 267.786 195.102 269.605L195.015 269.636C193.513 268.462 192.861 265.986 191.789 262.948C187.457 250.585 183.642 239.369 179.809 227.059C179.433 225.822 179.217 225.115 179.217 225.115Z" fill="white"/>
<path d="M167.575 50.1101C168.394 40.6396 169.413 31.6364 170.54 22.2384C172.508 6.05968 172.55 4.74177 173.77 3.28845L173.861 3.30066C174.674 5.05756 174.09 7.67872 173.676 10.7204C171.892 23.6184 170.161 35.3569 167.936 48.111C167.707 49.3832 167.575 50.1101 167.575 50.1101Z" fill="white"/>
<path d="M211.718 78.2059C217.189 70.4321 222.606 63.149 228.31 55.5864C238.124 42.6224 238.853 41.4631 240.642 40.8157L240.715 40.8719C240.537 42.7669 238.803 44.6521 236.82 47.1959C228.788 57.453 221.377 66.7455 213.037 76.6579C212.197 77.643 211.718 78.2059 211.718 78.2059Z" fill="white"/>
<path d="M49.2551 158.448C39.7435 159.349 30.6885 159.967 21.2353 160.549C4.92997 161.526 3.61256 161.718 1.96631 160.786L1.96191 160.694C3.55883 159.573 6.28811 159.681 9.31237 159.542C22.3475 158.975 34.2467 158.562 47.2184 158.453C48.5144 158.449 49.2551 158.448 49.2551 158.448Z" fill="white"/>
<path d="M255.298 178.857C264.621 180.742 273.471 182.774 282.722 184.964C298.579 188.747 299.914 188.941 301.229 190.32L301.206 190.409C299.36 191.017 296.799 190.133 293.837 189.382C281.171 186.141 269.689 183.094 257.248 179.442C256.007 179.069 255.298 178.857 255.298 178.857Z" fill="white"/>
<path d="M50.4315 129.562C41.0626 127.87 32.1559 126.019 22.8858 124.028C6.95428 120.577 5.60934 120.407 4.27051 119.059L4.29116 118.97C6.1324 118.321 8.73091 119.161 11.68 119.843C24.3156 122.796 35.9118 125.614 48.4694 129.018C49.718 129.364 50.4315 129.562 50.4315 129.562Z" fill="white"/>
<path d="M112.712 211.835C107.623 219.851 102.562 227.379 97.2161 235.216C88.0042 248.67 87.3517 249.826 85.6024 250.555L85.5269 250.502C85.6165 248.556 87.3733 246.47 89.1159 244C96.6499 233.374 103.606 223.744 111.468 213.444C112.26 212.42 112.712 211.835 112.712 211.835Z" fill="white"/>
<path d="M108.737 57.1391C104.32 48.7371 100.313 40.6064 96.1775 32.0668C89.1258 17.443 88.4175 16.2603 88.6612 14.3673L88.7448 14.3284C90.3517 15.3539 91.237 17.7531 92.5969 20.6783C98.0466 32.4695 102.939 43.305 107.962 55.2607C108.455 56.456 108.737 57.1391 108.737 57.1391Z" fill="white"/>
<path d="M100.225 98.8308C93.2609 92.3604 86.7872 86.0221 80.0433 79.329C68.2516 67.5856 67.4594 66.9359 67.0703 65.1155L67.1363 65.0512C68.9934 65.4875 70.6274 67.4599 72.8808 69.7683C82.01 79.1619 90.1976 87.7409 98.8692 97.3153C99.7319 98.2797 100.225 98.8308 100.225 98.8308Z" fill="white"/>
<path d="M241.06 94.7763C248.699 89.1233 256.132 83.9179 263.951 78.5219C277.777 69.0143 278.463 68.429 280.319 68.3781L280.371 68.4544C279.585 70.2372 277.201 71.5489 274.677 73.2323C263.811 80.4459 253.831 86.9438 242.8 93.7212C241.692 94.3926 241.06 94.7763 241.06 94.7763Z" fill="white"/>
<path d="M245.887 202.434C254.461 206.52 262.531 210.628 270.998 215.011C285.817 222.714 286.727 223.079 287.643 224.696L287.6 224.777C285.664 224.918 283.411 223.45 280.702 221.993C269.265 215.808 258.83 210.046 247.636 203.475C246.523 202.812 245.887 202.434 245.887 202.434Z" fill="white"/>
<path d="M238.62 185.759C247.686 188.758 256.248 191.842 265.112 195.101C280.659 200.847 281.726 201.134 282.842 202.631L282.809 202.716C280.885 203.102 278.393 201.886 275.616 200.815C263.347 196.051 252.338 191.661 240.485 186.573C239.298 186.055 238.62 185.759 238.62 185.759Z" fill="white"/>
<path d="M74.4348 124.021C65.3597 121.135 56.7754 118.154 47.8368 114.984C32.5151 109.519 31.1778 109.171 30.021 107.657L30.0531 107.571C31.963 107.165 34.4307 108.333 37.2671 109.389C49.5138 113.984 60.6074 118.259 72.5597 123.228C73.7529 123.733 74.4348 124.021 74.4348 124.021Z" fill="white"/>
<path d="M221.08 121.325C229.485 116.844 237.607 112.783 246.116 108.6C260.722 101.451 261.901 100.736 263.801 100.964L263.84 101.047C262.813 102.677 260.333 103.605 257.505 104.939C245.749 110.457 234.913 115.428 222.957 120.536C221.763 121.038 221.08 121.325 221.08 121.325Z" fill="white"/>
<path d="M57.3237 179.88C48.2699 182.828 39.5544 185.414 30.4455 188.051C14.8453 192.538 13.5296 193.048 11.6963 192.491L11.6719 192.403C12.9784 190.966 15.6434 190.476 18.591 189.673C31.2056 186.266 42.7274 183.265 55.3378 180.33C56.6015 180.044 57.3237 179.88 57.3237 179.88Z" fill="white"/>
<path d="M197.27 69.435C201.261 60.8406 205.289 52.7271 209.578 44.2387C217.151 29.3101 217.481 28.4517 219.088 27.5208L219.17 27.5633C219.334 29.4916 217.889 31.7567 216.461 34.4759C210.366 46.0164 204.726 56.4678 198.292 67.6781C197.641 68.7961 197.27 69.435 197.27 69.435Z" fill="white"/>
<path d="M166.301 257.459C167.861 266.803 169.117 275.762 170.373 285.191C172.552 301.779 172.765 302.675 171.964 304.348L171.873 304.358C170.668 302.883 170.579 300.326 170.204 297.125C168.725 284.242 167.474 272.424 166.449 259.485C166.355 258.196 166.301 257.459 166.301 257.459Z" fill="white"/>
<path d="M81.9291 168.188C72.7405 170.525 63.9034 172.53 54.5706 174.579C38.2774 178.127 37.3144 178.438 35.5693 177.78L35.5508 177.69C36.9215 176.369 39.4621 176.064 42.6349 175.42C55.3967 172.858 67.1003 170.615 79.9177 168.507C81.1979 168.304 81.9291 168.188 81.9291 168.188Z" fill="white"/>
<path d="M233.053 84.7937C239.941 78.2687 246.679 72.2114 253.803 65.8947C265.987 55.1288 266.933 54.1312 268.821 53.8488L268.881 53.9184C268.321 55.7711 266.141 57.3464 263.809 59.3489C253.913 67.8093 244.802 75.4599 234.653 83.5364C233.635 84.3366 233.053 84.7937 233.053 84.7937Z" fill="white"/>
<path d="M252.285 126.16C261.321 123.23 270.017 120.659 279.173 118.02C294.81 113.542 296.099 113.045 297.927 113.602L297.952 113.69C296.668 115.098 294.146 115.566 291.029 116.412C278.456 119.792 266.932 122.781 254.272 125.712C253.007 125.997 252.285 126.16 252.285 126.16Z" fill="white"/>
<path d="M107.573 231.949C103.153 240.335 98.7243 248.23 94.0119 256.497C85.9128 270.649 85.357 271.85 83.672 272.717L83.5925 272.67C83.5265 270.769 85.0043 268.679 86.646 265.902C93.339 254.639 99.4873 244.503 106.463 233.652C107.169 232.568 107.573 231.949 107.573 231.949Z" fill="white"/>
<path d="M137.116 225.398C135.441 234.737 133.608 243.613 131.626 252.886C128.105 269.226 128.001 270.157 126.684 271.465L126.594 271.445C125.955 269.652 126.73 267.215 127.454 264.073C130.402 251.404 133.196 239.862 136.574 227.356C136.919 226.11 137.116 225.398 137.116 225.398Z" fill="white"/>
<path d="M75.7052 157.515C66.246 158.453 57.1899 159.112 47.6949 159.739C31.4021 160.786 30.0818 160.987 28.4273 160.06L28.4224 159.968C29.9774 158.866 32.5398 158.946 35.7677 158.784C48.8 158.159 60.6791 157.695 73.6686 157.529C74.9646 157.52 75.7052 157.515 75.7052 157.515Z" fill="white"/>
<path d="M242.545 105.963C250.725 101.1 258.649 96.6662 266.96 92.0888C281.273 84.2382 282.379 83.5013 284.269 83.6397L284.313 83.7208C283.351 85.4161 280.839 86.4855 278.166 87.903C266.611 93.9975 256.038 99.4542 244.383 105.088C243.214 105.644 242.545 105.963 242.545 105.963Z" fill="white"/>
<path d="M121.574 52.1994C118.292 43.2957 115.381 34.7105 112.397 25.7082C107.207 9.96104 106.78 8.98485 107.258 7.18256L107.346 7.15491C108.805 8.38091 109.37 10.8762 110.335 13.9514C114.222 26.4256 117.646 37.7779 121.05 50.2362C121.384 51.4855 121.574 52.1994 121.574 52.1994Z" fill="white"/>
<path d="M173.655 242.192C176.152 251.351 178.302 260.143 180.494 269.377C184.234 285.254 184.644 286.502 184.004 288.278L183.914 288.298C182.541 286.924 182.183 284.245 181.526 281.268C178.759 268.595 176.321 256.935 174.006 244.193C173.783 242.919 173.655 242.192 173.655 242.192Z" fill="white"/>
<path d="M123.546 233.22C120.612 242.251 117.582 250.803 114.36 259.708C108.819 274.937 108.458 276.294 106.93 277.444L106.844 277.412C106.455 275.548 107.557 273.236 108.701 270.225C113.337 258.104 117.692 247.015 122.743 235.087C123.254 233.899 123.546 233.22 123.546 233.22Z" fill="white"/>
<path d="M91.363 195.887C83.7874 201.618 76.4044 206.906 68.646 212.383C55.3456 221.738 54.2949 222.627 52.3862 222.699L52.334 222.623C53.0966 220.841 55.4492 219.51 57.9766 217.785C68.7641 210.458 78.6517 203.87 89.6342 196.96C90.7342 196.278 91.363 195.887 91.363 195.887Z" fill="white"/>
<path d="M140.469 257.095C139.727 266.542 138.783 275.537 137.725 284.989C135.853 301.455 135.832 302.524 134.644 303.963L134.552 303.952C133.72 302.19 134.296 299.527 134.679 296.531C136.371 283.546 138.008 271.815 140.124 259.097C140.344 257.823 140.469 257.095 140.469 257.095Z" fill="white"/>
<path d="M97.995 108.876C90.2853 103.272 83.0765 97.7373 75.6148 91.9284C62.4236 81.6229 61.6296 81.1225 61.0269 79.3688L61.0846 79.2971C62.9813 79.5082 64.8413 81.2718 67.3547 83.2934C77.4885 91.4803 86.6779 99.0403 96.4665 107.534C97.4392 108.388 97.995 108.876 97.995 108.876Z" fill="white"/>
<path d="M225.098 131.173C234.04 127.954 242.658 125.104 251.711 122.179C267.368 117.149 268.497 116.673 270.314 117.164L270.341 117.252C269.104 118.7 266.6 119.249 263.51 120.193C250.951 124.003 239.558 127.347 227.069 130.662C225.815 130.987 225.098 131.173 225.098 131.173Z" fill="white"/>
<path d="M226.397 177.594C235.55 180.19 244.211 182.892 253.269 185.786C269.047 190.857 270.129 191.099 271.309 192.546L271.279 192.633C269.427 193.089 267.072 192.075 264.011 191.044C251.618 186.837 240.398 182.915 228.297 178.327C227.088 177.861 226.397 177.594 226.397 177.594Z" fill="white"/>
<path d="M155.238 226.715C155.876 236.208 156.245 245.249 156.567 254.712C157.09 270.887 157.262 272.295 156.27 273.932L156.178 273.934C155.105 272.32 155.283 269.633 155.228 266.572C155.02 253.575 154.937 241.69 155.187 228.746C155.22 227.454 155.238 226.715 155.238 226.715Z" fill="white"/>
<path d="M243.909 170.445C253.327 171.775 262.286 173.28 271.648 174.918C288.164 177.836 289.083 177.903 290.441 179.169L290.424 179.259C288.606 179.979 285.957 179.234 283.007 178.67C270.191 176.189 258.532 173.824 245.891 170.914C244.63 170.615 243.909 170.445 243.909 170.445Z" fill="white"/>
<path d="M73.8812 189.086C65.414 193.375 57.2187 197.261 48.5832 201.284C33.8366 208.123 32.6367 208.817 30.742 208.548L30.7041 208.465C31.7715 206.848 34.3193 205.957 37.1201 204.706C49.039 199.412 59.9528 194.681 71.9883 189.835C73.1927 189.358 73.8812 189.086 73.8812 189.086Z" fill="white"/>
<path d="M99.7685 222.787C94.3042 230.533 88.8919 237.795 83.1506 245.388C73.0147 258.747 72.5474 259.516 70.8023 260.145L70.7295 260.089C70.914 258.15 72.7705 256.151 74.6315 253.769C82.6633 243.536 90.0908 234.243 98.448 224.333C99.2882 223.349 99.7685 222.787 99.7685 222.787Z" fill="white"/>
<path d="M134.114 58.7587C131.776 49.5458 129.777 40.7022 127.754 31.4581C124.211 15.1425 123.917 14.2329 124.577 12.4992L124.667 12.4807C125.99 13.8513 126.291 16.3906 126.931 19.5509C129.485 32.3198 131.708 43.9738 133.798 56.7518C133.999 58.0289 134.114 58.7587 134.114 58.7587Z" fill="white"/>
<path d="M94.3429 208.917C87.7229 215.732 81.24 222.066 74.3981 228.66C62.3289 240.252 61.7208 240.966 59.8958 241.318L59.8325 241.251C60.3185 239.361 62.4804 237.662 64.6739 235.614C74.1629 226.794 82.9618 218.758 92.797 210.239C93.7806 209.398 94.3429 208.917 94.3429 208.917Z" fill="white"/>
<path d="M243.48 156.559C253.005 156.46 262.097 156.603 271.578 156.816C288.187 157.217 289.256 157.143 290.798 158.196L290.795 158.288C289.147 159.249 286.599 158.943 283.373 158.819C270.256 158.288 258.395 157.7 245.51 156.725C244.218 156.619 243.48 156.559 243.48 156.559Z" fill="white"/>
<path d="M132.281 242.843C130.524 252.141 128.615 260.973 126.536 270.28C122.873 286.546 122.754 287.514 121.421 288.812L121.332 288.791C120.71 286.992 121.507 284.564 122.26 281.427C125.326 268.782 128.227 257.268 131.721 244.796C132.077 243.554 132.281 242.843 132.281 242.843Z" fill="white"/>
<path d="M258.027 165.898C267.527 166.591 276.571 167.488 286.006 168.488C302.618 170.278 303.6 170.287 305.044 171.46L305.033 171.551C303.271 172.391 300.598 171.831 297.593 171.464C284.699 169.862 272.879 168.288 260.036 166.232C258.757 166.02 258.027 165.898 258.027 165.898Z" fill="white"/>
<path d="M117.157 67.879C113.023 59.3367 109.295 51.0878 105.441 42.4036C98.8799 27.5505 98.2133 26.3464 98.5197 24.4644L98.6046 24.4283C100.213 25.5321 101.061 28.1222 102.243 30.9028C107.286 42.8441 111.815 53.8398 116.444 65.9764C116.898 67.187 117.157 67.879 117.157 67.879Z" fill="white"/>
<path d="M217.701 185.685C226.374 189.598 234.554 193.551 243.07 197.736C257.726 204.971 258.949 205.449 259.915 207.073L259.873 207.155C257.973 207.333 255.794 205.984 252.919 204.514C241.283 198.533 230.759 193.002 219.472 186.689C218.345 186.05 217.701 185.685 217.701 185.685Z" fill="white"/>
<path d="M204.606 244.01C209.65 252.073 214.258 259.885 219.012 268.074C227.367 282.519 227.934 283.308 227.836 285.162L227.755 285.207C226.076 284.305 225.013 281.978 223.438 279.163C217.075 267.734 211.407 257.333 205.521 245.825C204.938 244.67 204.606 244.01 204.606 244.01Z" fill="white"/>
<path d="M202.203 97.6626C208.119 90.2311 213.95 83.2883 220.105 76.0593C230.707 63.6513 231.474 62.5786 233.29 62.0405L233.359 62.1009C233.064 64.014 231.12 65.8832 229.097 68.1844C220.45 77.9754 212.499 86.8172 203.611 96.1948C202.715 97.1288 202.203 97.6626 202.203 97.6626Z" fill="white"/>
<path d="M84.0068 141.822C74.5452 140.733 65.5479 139.457 56.1622 138.062C39.5661 135.566 38.6551 135.523 37.2656 134.294L37.2803 134.203C39.0761 133.438 41.7234 134.11 44.7103 134.602C57.6201 136.759 69.3373 138.826 82.0138 141.405C83.2821 141.67 84.0068 141.822 84.0068 141.822Z" fill="white"/>
<path d="M83.1617 101.707C75.2558 96.4505 67.8507 91.2427 60.0919 85.7063C46.5178 75.9855 45.6684 75.496 44.9912 73.765L45.0459 73.6908C46.9497 73.8228 48.8817 75.5074 51.4777 77.4224C62.0048 85.2242 71.4797 92.3802 81.5785 100.43C82.5858 101.243 83.1617 101.707 83.1617 101.707Z" fill="white"/>
<path d="M210.585 119.232C218.497 113.97 226.183 109.143 234.265 104.143C248.489 95.378 249.261 94.7889 251.123 94.8311L251.17 94.9098C250.315 96.6129 248.009 97.7461 245.243 99.397C234.079 106.028 223.773 112.027 212.376 118.265C211.236 118.881 210.585 119.232 210.585 119.232Z" fill="white"/>
<path d="M78.7517 207.849C71.3438 213.802 64.1295 219.295 56.5288 225.001C43.4412 234.791 42.4645 235.661 40.5789 235.788L40.5244 235.714C41.2337 233.912 43.5416 232.515 46.0225 230.713C56.5644 223.092 66.2787 216.2 77.0548 208.972C78.1345 208.257 78.7517 207.849 78.7517 207.849Z" fill="white"/>
<path d="M88.3313 130.744C79.1973 128.058 70.5546 125.268 61.5409 122.291C46.0384 117.141 44.7504 116.834 43.5684 115.356L43.5986 115.269C45.4865 114.825 47.9454 115.919 50.8508 116.929C63.226 121.265 74.4002 125.294 86.4393 129.993C87.6432 130.471 88.3313 130.744 88.3313 130.744Z" fill="white"/>
<path d="M184.38 62.3654C187.003 53.2302 189.733 44.5854 192.645 35.577C197.803 19.7142 198.009 18.7656 199.456 17.5961L199.544 17.6254C199.997 19.4745 198.975 21.8227 197.936 24.8722C193.717 37.1585 189.758 48.3672 185.119 60.4724C184.648 61.677 184.38 62.3654 184.38 62.3654Z" fill="white"/>
<path d="M229.777 195.868C238.272 200.135 246.275 204.42 254.621 208.963C269.276 216.97 270.179 217.354 271.062 218.99L271.016 219.07C269.063 219.172 266.792 217.621 264.179 216.144C252.848 209.71 242.548 203.74 231.504 196.945C230.405 196.26 229.777 195.868 229.777 195.868Z" fill="white"/>
<path d="M71.9269 112.072C63.2326 108.167 55.0626 104.237 46.5371 100.065C31.5034 92.6766 30.6272 92.3514 29.6763 90.7581L29.7179 90.6761C31.6391 90.4927 33.8895 91.8852 36.6765 93.3041C48.2858 99.2467 58.8279 104.762 70.1547 111.071C71.2824 111.708 71.9269 112.072 71.9269 112.072Z" fill="white"/>
<path d="M322.88 123H354.68C366.2 123 375.12 125.12 381.44 129.36C387.76 133.6 390.92 140.08 390.92 148.8C390.92 157.44 387.8 163.88 381.56 168.12C375.32 172.36 366.36 174.48 354.68 174.48H335.36V207H322.88V123ZM354.92 168.72C370.6 168.72 378.44 162.08 378.44 148.8C378.44 135.44 370.6 128.76 354.92 128.76H335.36V168.72H354.92ZM433.528 208.2C426.728 208.2 420.768 206.96 415.648 204.48C410.528 201.92 406.568 198.32 403.768 193.68C400.968 189.04 399.568 183.68 399.568 177.6C399.568 171.52 400.968 166.16 403.768 161.52C406.568 156.88 410.528 153.32 415.648 150.84C420.768 148.28 426.728 147 433.528 147C440.328 147 446.288 148.28 451.408 150.84C456.608 153.32 460.608 156.88 463.408 161.52C466.208 166.16 467.608 171.52 467.608 177.6C467.608 183.68 466.208 189.04 463.408 193.68C460.608 198.32 456.608 201.92 451.408 204.48C446.288 206.96 440.328 208.2 433.528 208.2ZM433.528 203.28C440.648 203.28 446.248 201 450.328 196.44C454.408 191.88 456.448 185.6 456.448 177.6C456.448 169.6 454.408 163.32 450.328 158.76C446.248 154.2 440.648 151.92 433.528 151.92C426.408 151.92 420.808 154.2 416.728 158.76C412.728 163.32 410.728 169.6 410.728 177.6C410.728 185.6 412.728 191.88 416.728 196.44C420.808 201 426.408 203.28 433.528 203.28ZM474.812 148.2H486.452L505.172 191.76L522.212 147H527.612L546.572 192.84L565.892 148.2H572.612L546.812 208.2H541.652L522.932 163.44L505.892 208.2H500.972L474.812 148.2ZM612.922 203.28C618.362 203.28 622.922 201.96 626.602 199.32C630.362 196.68 632.762 193.08 633.802 188.52H642.802C641.282 194.68 637.802 199.52 632.362 203.04C626.922 206.48 620.282 208.2 612.442 208.2C605.882 208.2 600.122 206.96 595.162 204.48C590.282 202 586.482 198.48 583.762 193.92C581.122 189.28 579.802 183.92 579.802 177.84C579.802 171.6 581.122 166.16 583.762 161.52C586.402 156.88 590.162 153.32 595.042 150.84C600.002 148.28 605.722 147 612.202 147C621.962 147 629.562 149.64 635.002 154.92C640.522 160.2 643.402 167.64 643.642 177.24H590.842V177.84C590.842 185.76 592.762 192 596.602 196.56C600.442 201.04 605.882 203.28 612.922 203.28ZM612.442 151.92C606.442 151.92 601.602 153.72 597.922 157.32C594.242 160.84 592.002 165.84 591.202 172.32H633.202C632.322 165.76 630.082 160.72 626.482 157.2C622.962 153.68 618.282 151.92 612.442 151.92ZM657.431 148.2H668.471V160.8C669.991 156.4 672.391 153 675.671 150.6C679.031 148.2 683.071 147 687.791 147C689.631 147 690.991 147.16 691.871 147.48L690.791 155.16C689.591 154.52 687.911 154.2 685.751 154.2C680.311 154.2 676.071 156.48 673.031 161.04C669.991 165.6 668.471 171.36 668.471 178.32V207H657.431V148.2Z" fill="white"/>
</svg>
