<svg width="395" height="97" viewBox="0 0 395 97" fill="none" xmlns="http://www.w3.org/2000/svg">
<path d="M341.888 23.1875C340.861 23.1875 340.044 24.0036 340.044 25.0312V55.9062C340.044 56.9342 340.861 57.7502 341.888 57.7502H355.763C346.214 60.5782 340.519 70.6822 339.825 73.8122H389.701C389.701 73.8122 385.04 61.0002 374.232 57.7502H387.638C388.666 57.7502 389.482 56.9342 389.482 55.9062V25.0312C389.482 24.0038 388.666 23.1877 387.638 23.1877L341.888 23.1875Z" stroke="white" stroke-width="8.125" stroke-linecap="round" stroke-linejoin="round"/>
<path fill-rule="evenodd" clip-rule="evenodd" d="M339.821 73.8125H389.705C389.705 73.8125 383.395 56.1995 368.275 56.9517C366.37 56.9517 364.584 56.8014 361.965 56.9517C348.63 56.0483 340.656 70.049 339.823 73.8125" fill="white"/>
<path d="M339.821 73.8125H389.705C389.705 73.8125 383.395 56.1995 368.275 56.9517C366.37 56.9517 364.584 56.8014 361.965 56.9517C348.63 56.0483 340.656 70.049 339.823 73.8125" stroke="black" stroke-width="3.12499" stroke-linecap="round" stroke-linejoin="round"/>
<path fill-rule="evenodd" clip-rule="evenodd" d="M341.895 23.1872C340.868 23.1872 340.041 24.0145 340.041 25.0421V55.9082C340.041 56.9358 340.868 57.7631 341.895 57.7631H387.631C388.658 57.7631 389.486 56.9358 389.486 55.9082V25.0421C389.486 24.0143 388.658 23.187 387.631 23.187L341.895 23.1872Z" fill="white" stroke="black" stroke-width="3.12499" stroke-linecap="round" stroke-linejoin="round"/>
<path fill-rule="evenodd" clip-rule="evenodd" d="M344.773 27.3501V53.6001H384.753V27.3501H344.773Z" fill="black" stroke="black" stroke-width="1.875" stroke-linecap="round" stroke-linejoin="round"/>
<path d="M347.976 30.5236V29.6536L354.5 31.8756V32.6686L347.976 34.8906V34.0206L353.218 32.2766L347.976 30.5236Z" fill="white"/>
<path d="M28 78.12C22.8267 78.12 18.32 76.9467 14.48 74.6C10.64 72.2 7.65333 68.8133 5.52 64.44C3.44 60.0133 2.4 54.8667 2.4 49C2.4 43.1867 3.46667 38.0933 5.6 33.72C7.78667 29.2933 10.8 25.88 14.64 23.48C18.48 21.08 22.8267 19.88 27.68 19.88C31.9467 19.88 36 20.68 39.84 22.28L39.04 29.08C35.6267 27.3733 32.32 26.52 29.12 26.52C25.1733 26.52 21.7867 27.5067 18.96 29.48C16.1867 31.4533 14.08 34.1467 12.64 37.56C11.2 40.9733 10.48 44.7867 10.48 49C10.48 53.2133 11.2 57.0267 12.64 60.44C14.08 63.8533 16.1867 66.5467 18.96 68.52C21.7867 70.4933 25.2 71.48 29.2 71.48C32.6667 71.48 35.9467 70.68 39.04 69.08L39.84 75.88C36.4267 77.3733 32.48 78.12 28 78.12ZM67.0975 78.12C62.5108 78.12 58.4042 76.92 54.7775 74.52C51.2042 72.12 48.4042 68.7333 46.3775 64.36C44.3508 59.9333 43.3375 54.8133 43.3375 49C43.3375 43.1867 44.3508 38.0933 46.3775 33.72C48.4042 29.2933 51.2042 25.88 54.7775 23.48C58.4042 21.08 62.5108 19.88 67.0975 19.88C71.6842 19.88 75.7642 21.08 79.3375 23.48C82.9108 25.88 85.7108 29.2933 87.7375 33.72C89.7642 38.0933 90.7775 43.1867 90.7775 49C90.7775 54.8133 89.7642 59.9333 87.7375 64.36C85.7108 68.7333 82.9108 72.12 79.3375 74.52C75.7642 76.92 71.6842 78.12 67.0975 78.12ZM67.0975 70.84C72.2175 70.84 76.1375 68.8133 78.8575 64.76C81.6308 60.6533 83.0175 55.4 83.0175 49C83.0175 42.6 81.6308 37.3733 78.8575 33.32C76.1375 29.2133 72.2175 27.16 67.0975 27.16C61.9775 27.16 58.0308 29.2133 55.2575 33.32C52.4842 37.3733 51.0975 42.6 51.0975 49C51.0975 55.4 52.4842 60.6533 55.2575 64.76C58.0308 68.8133 61.9775 70.84 67.0975 70.84ZM138.734 77L135.054 36.52L121.534 65.4L108.014 36.52L104.254 77H96.4944L102.574 21H108.734L121.534 49.88L134.334 21H140.494L146.574 77H138.734ZM154.983 21H169.383C175.249 21 179.809 22.5467 183.063 25.64C186.369 28.7333 188.023 33.24 188.023 39.16C188.023 45.08 186.369 49.6133 183.063 52.76C179.809 55.8533 175.249 57.4 169.383 57.4H162.343V77H154.983V21ZM168.743 50.68C176.529 50.68 180.423 46.84 180.423 39.16C180.423 31.48 176.529 27.64 168.743 27.64H162.343V50.68H168.743ZM214.093 78.12C207.32 78.12 202.306 76.0933 199.053 72.04C195.8 67.9867 194.173 62.2533 194.173 54.84V21H201.453V52.76C201.453 56.6533 201.746 59.9333 202.333 62.6C202.973 65.2667 204.226 67.4267 206.093 69.08C207.96 70.68 210.626 71.48 214.093 71.48C217.613 71.48 220.306 70.68 222.173 69.08C224.04 67.4267 225.266 65.2667 225.853 62.6C226.493 59.9333 226.813 56.6533 226.813 52.76V21H234.093V54.84C234.093 62.3067 232.466 68.0667 229.213 72.12C225.96 76.12 220.92 78.12 214.093 78.12ZM254.188 27.64H240.268V21H275.468V27.64H261.548V77H254.188V27.64ZM282.155 21H312.075V27.64H289.435V44.36H307.355V51.08H289.435V70.36H312.715V77H282.155V21Z" fill="white"/>
</svg>
