<svg width="347" height="86" viewBox="0 0 347 86" fill="none" xmlns="http://www.w3.org/2000/svg">
<path d="M76.16 61.86C76.16 62.46 76.64 63 77.24 63H91.88C103.46 63 112.94 53.58 112.94 41.94C112.94 30.42 103.46 21 91.88 21H77.24C76.64 21 76.16 21.54 76.16 22.14V61.86ZM85.52 54.12V29.82H91.28C98.06 29.82 102.98 35.16 102.98 41.94C102.98 48.78 98.06 54.12 91.28 54.12H85.52ZM115.624 51C115.624 57.9 121.024 63.6 128.164 63.6C131.944 63.6 134.944 62.28 137.044 60.18C137.584 59.64 137.464 58.92 137.104 58.44L134.104 54.84C133.744 54.42 133.144 54.42 132.604 54.84C131.644 55.56 129.904 56.28 128.404 56.28C125.284 56.28 123.964 53.94 123.784 52.32H138.184C138.724 52.32 139.264 51.9 139.324 51.3C139.384 50.88 139.444 50.1 139.444 49.68C139.444 43.08 134.164 38.4 128.044 38.4C120.964 38.4 115.624 44.22 115.624 51ZM124.564 47.64C124.804 46.08 126.184 44.82 127.804 44.82C129.364 44.82 130.864 46.08 130.984 47.64H124.564ZM142.951 61.62C144.151 62.58 147.151 63.6 151.111 63.6C157.891 63.6 161.251 60.18 161.251 55.98C161.251 51.18 157.891 49.26 153.031 47.58C150.991 46.86 150.331 46.26 150.331 45.66C150.331 45 150.871 44.82 151.651 44.82C153.991 44.82 156.751 46.2 156.751 46.2C157.231 46.38 157.831 46.2 158.011 45.84L160.231 41.76C160.591 41.16 160.171 40.62 159.631 40.26C158.311 39.42 155.431 38.4 151.651 38.4C145.171 38.4 142.291 41.64 142.291 45.66C142.291 49.38 144.331 52.08 149.011 53.7C152.071 54.78 152.431 55.62 152.431 56.22C152.431 56.94 151.891 57.3 151.291 57.3C148.711 57.3 145.891 55.74 145.891 55.74C145.411 55.5 144.811 55.86 144.631 56.22L142.531 60.36C142.231 60.9 142.531 61.26 142.951 61.62ZM170.436 31.74C173.076 31.74 175.236 29.64 175.236 27C175.236 24.36 173.076 22.2 170.436 22.2C167.796 22.2 165.696 24.36 165.696 27C165.696 29.64 167.796 31.74 170.436 31.74ZM166.056 61.86C166.056 62.46 166.596 63 167.196 63H173.796C174.396 63 174.936 62.46 174.936 61.86V40.14C174.936 39.48 174.396 39 173.796 39H167.196C166.596 39 166.056 39.48 166.056 40.14V61.86ZM178.828 60.84C178.828 65.58 182.668 67.26 183.448 67.5V67.68C182.788 68.04 179.788 69.84 179.788 73.44C179.788 77.22 183.028 81.6 192.328 81.6C201.808 81.6 205.828 76.92 205.828 71.16C205.828 65.82 201.148 62.4 195.508 62.4H188.308C187.408 62.4 186.388 61.92 186.388 60.78C186.388 59.82 187.108 59.16 188.368 59.16H192.688C199.048 59.16 203.068 54.48 203.068 50.1C203.068 46.14 200.788 44.28 200.788 44.28L204.268 43.02C204.628 42.84 204.928 42.42 204.928 42V39.54C204.928 38.88 204.448 38.4 203.788 38.4H192.448C186.628 38.4 181.888 43.2 181.888 48.78C181.888 52.44 183.628 54.24 183.628 54.24C183.628 54.24 178.828 56.1 178.828 60.84ZM189.508 49.32C189.508 47.52 190.888 46.2 192.688 46.2C194.548 46.2 195.868 47.52 195.868 49.32C195.868 51.12 194.548 52.44 192.688 52.44C190.888 52.44 189.508 51.12 189.508 49.32ZM188.008 71.76C188.008 70.02 190.168 69.24 192.328 69.24C195.568 69.24 196.648 70.5 196.648 71.76C196.648 73.38 195.328 74.58 192.328 74.58C189.448 74.58 188.008 73.44 188.008 71.76ZM209.299 61.86C209.299 62.46 209.839 63 210.439 63H216.739C217.579 63 217.819 62.4 217.819 61.86V50.34C217.819 47.88 219.979 46.14 222.379 46.14C225.079 46.14 226.459 48.24 226.459 50.64V61.86C226.459 62.46 226.939 63 227.599 63H234.019C234.619 63 235.159 62.46 235.159 61.86V50.94C235.159 44.1 231.199 38.4 223.759 38.4C219.379 38.4 216.619 40.68 215.299 42.12L214.339 39.72C214.159 39.3 213.619 39 213.259 39H210.439C209.839 39 209.299 39.48 209.299 40.14V61.86ZM241.98 61.86C241.98 62.46 242.52 63 243.12 63H250.26C250.92 63 251.4 62.46 251.4 61.86V39.48H251.46L275.16 63.3C275.28 63.42 275.76 63.6 275.94 63.6H276.9C277.5 63.6 278.04 63.12 278.04 62.52V22.14C278.04 21.54 277.5 21 276.9 21H269.7C269.04 21 268.56 21.54 268.56 22.14V43.44H268.5L244.56 20.4H243.06C242.46 20.4 241.92 20.88 241.92 21.48L241.98 61.86ZM283.2 50.94C283.2 57.84 288.84 63.6 295.68 63.6C302.52 63.6 308.16 57.84 308.16 50.94C308.16 44.16 302.52 38.4 295.68 38.4C288.84 38.4 283.2 44.16 283.2 50.94ZM290.94 50.94C290.94 48.3 293.04 46.14 295.68 46.14C298.32 46.14 300.42 48.3 300.42 50.94C300.42 53.64 298.32 55.86 295.68 55.86C293.04 55.86 290.94 53.64 290.94 50.94ZM318.115 62.88C318.175 63.3 318.775 63.6 319.135 63.6H319.435C319.735 63.6 320.215 63.36 320.395 63.12L328.015 51.12H328.075L335.815 63.12C335.935 63.36 336.475 63.6 336.775 63.6H337.015C337.435 63.6 337.975 63.3 338.095 62.88L346.075 40.5C346.375 39.72 345.835 39 344.995 39H339.415C338.755 39 338.455 39.18 338.215 39.72L335.155 47.94H335.095L329.335 38.88C329.215 38.64 328.855 38.4 328.435 38.4H327.835C327.295 38.4 326.995 38.7 326.875 38.88L321.175 47.94H321.115L317.995 39.72C317.875 39.3 317.275 39 316.915 39H311.215C310.375 39 309.835 39.72 310.135 40.5L318.115 62.88Z" fill="black"/>
<path d="M12.8794 39.6884H47L34.1206 63.2454H1.28651e-05L12.8794 39.6884Z" fill="#2F2E2E"/>
<path d="M0 28H34.1206V63.2943H0V28Z" fill="url(#paint0_linear_5_36)"/>
<defs>
<linearGradient id="paint0_linear_5_36" x1="34.1206" y1="28" x2="-0.792525" y2="28.8022" gradientUnits="userSpaceOnUse">
<stop stop-color="#CB79F2"/>
<stop offset="1" stop-color="#9BF2C8"/>
</linearGradient>
</defs>
</svg>
