<svg width="275" height="72" viewBox="0 0 275 72" fill="none" xmlns="http://www.w3.org/2000/svg">
<path d="M13.7015 29.6608H50L36.2985 54.7216H2.94375e-06L13.7015 29.6608Z" fill="#2F2E2E"/>
<path d="M0 17.2264H36.2985V54.7735H0V17.2264Z" fill="url(#paint0_linear_216_429)"/>
<path d="M64.5246 52.05C64.5246 52.55 64.9246 53 65.4246 53H77.6246C87.2746 53 95.1746 45.15 95.1746 35.45C95.1746 25.85 87.2746 18 77.6246 18H65.4246C64.9246 18 64.5246 18.45 64.5246 18.95V52.05ZM72.3246 45.6V25.35H77.1246C82.7746 25.35 86.8746 29.8 86.8746 35.45C86.8746 41.15 82.7746 45.6 77.1246 45.6H72.3246ZM97.4109 43C97.4109 48.75 101.911 53.5 107.861 53.5C111.011 53.5 113.511 52.4 115.261 50.65C115.711 50.2 115.611 49.6 115.311 49.2L112.811 46.2C112.511 45.85 112.011 45.85 111.561 46.2C110.761 46.8 109.311 47.4 108.061 47.4C105.461 47.4 104.361 45.45 104.211 44.1H116.211C116.661 44.1 117.111 43.75 117.161 43.25C117.211 42.9 117.261 42.25 117.261 41.9C117.261 36.4 112.861 32.5 107.761 32.5C101.861 32.5 97.4109 37.35 97.4109 43ZM104.861 40.2C105.061 38.9 106.211 37.85 107.561 37.85C108.861 37.85 110.111 38.9 110.211 40.2H104.861ZM120.184 51.85C121.184 52.65 123.684 53.5 126.984 53.5C132.634 53.5 135.434 50.65 135.434 47.15C135.434 43.15 132.634 41.55 128.584 40.15C126.884 39.55 126.334 39.05 126.334 38.55C126.334 38 126.784 37.85 127.434 37.85C129.384 37.85 131.684 39 131.684 39C132.084 39.15 132.584 39 132.734 38.7L134.584 35.3C134.884 34.8 134.534 34.35 134.084 34.05C132.984 33.35 130.584 32.5 127.434 32.5C122.034 32.5 119.634 35.2 119.634 38.55C119.634 41.65 121.334 43.9 125.234 45.25C127.784 46.15 128.084 46.85 128.084 47.35C128.084 47.95 127.634 48.25 127.134 48.25C124.984 48.25 122.634 46.95 122.634 46.95C122.234 46.75 121.734 47.05 121.584 47.35L119.834 50.8C119.584 51.25 119.834 51.55 120.184 51.85ZM143.088 26.95C145.288 26.95 147.088 25.2 147.088 23C147.088 20.8 145.288 19 143.088 19C140.888 19 139.138 20.8 139.138 23C139.138 25.2 140.888 26.95 143.088 26.95ZM139.438 52.05C139.438 52.55 139.888 53 140.388 53H145.888C146.388 53 146.838 52.55 146.838 52.05V33.95C146.838 33.4 146.388 33 145.888 33H140.388C139.888 33 139.438 33.4 139.438 33.95V52.05ZM150.081 51.2C150.081 55.15 153.281 56.55 153.931 56.75V56.9C153.381 57.2 150.881 58.7 150.881 61.7C150.881 64.85 153.581 68.5 161.331 68.5C169.231 68.5 172.581 64.6 172.581 59.8C172.581 55.35 168.681 52.5 163.981 52.5H157.981C157.231 52.5 156.381 52.1 156.381 51.15C156.381 50.35 156.981 49.8 158.031 49.8H161.631C166.931 49.8 170.281 45.9 170.281 42.25C170.281 38.95 168.381 37.4 168.381 37.4L171.281 36.35C171.581 36.2 171.831 35.85 171.831 35.5V33.45C171.831 32.9 171.431 32.5 170.881 32.5H161.431C156.581 32.5 152.631 36.5 152.631 41.15C152.631 44.2 154.081 45.7 154.081 45.7C154.081 45.7 150.081 47.25 150.081 51.2ZM158.981 41.6C158.981 40.1 160.131 39 161.631 39C163.181 39 164.281 40.1 164.281 41.6C164.281 43.1 163.181 44.2 161.631 44.2C160.131 44.2 158.981 43.1 158.981 41.6ZM157.731 60.3C157.731 58.85 159.531 58.2 161.331 58.2C164.031 58.2 164.931 59.25 164.931 60.3C164.931 61.65 163.831 62.65 161.331 62.65C158.931 62.65 157.731 61.7 157.731 60.3ZM175.473 52.05C175.473 52.55 175.923 53 176.423 53H181.673C182.373 53 182.573 52.5 182.573 52.05V42.45C182.573 40.4 184.373 38.95 186.373 38.95C188.623 38.95 189.773 40.7 189.773 42.7V52.05C189.773 52.55 190.173 53 190.723 53H196.073C196.573 53 197.023 52.55 197.023 52.05V42.95C197.023 37.25 193.723 32.5 187.523 32.5C183.873 32.5 181.573 34.4 180.473 35.6L179.673 33.6C179.523 33.25 179.073 33 178.773 33H176.423C175.923 33 175.473 33.4 175.473 33.95V52.05ZM199.839 53H205.339C206.339 53 206.889 52.4 207.139 51.8L208.939 47.8H222.539L224.339 51.75C224.789 52.7 225.189 53 226.089 53H231.639C232.389 53 232.789 52.35 232.489 51.7L216.839 18.05C216.689 17.75 216.339 17.5 215.989 17.5H215.489C215.139 17.5 214.789 17.75 214.639 18.05L198.989 51.7C198.689 52.35 199.089 53 199.839 53ZM211.939 41L215.689 32.75H215.739L219.539 41H211.939ZM232.957 43C232.957 49 238.007 53.5 243.707 53.5C247.307 53.5 249.907 52.1 251.757 49.3C252.107 48.8 251.857 48.3 251.407 47.9L248.407 45.3C248.107 45.05 247.657 45.15 247.307 45.5C246.507 46.3 245.657 47.05 243.907 47.05C241.707 47.05 240.007 45.25 240.007 43C240.007 40.8 241.807 38.95 244.007 38.95C245.157 38.95 246.207 39.5 246.907 40.25C247.157 40.5 247.757 40.6 248.007 40.35L251.007 37.5C251.457 37.1 251.607 36.55 251.257 36.1C249.357 33.8 246.907 32.5 243.757 32.5C238.057 32.5 232.957 37.1 232.957 43ZM254.003 43C254.003 48.75 258.503 53.5 264.453 53.5C267.603 53.5 270.103 52.4 271.853 50.65C272.303 50.2 272.203 49.6 271.903 49.2L269.403 46.2C269.103 45.85 268.603 45.85 268.153 46.2C267.353 46.8 265.903 47.4 264.653 47.4C262.053 47.4 260.953 45.45 260.803 44.1H272.803C273.253 44.1 273.703 43.75 273.753 43.25C273.803 42.9 273.853 42.25 273.853 41.9C273.853 36.4 269.453 32.5 264.353 32.5C258.453 32.5 254.003 37.35 254.003 43ZM261.453 40.2C261.653 38.9 262.803 37.85 264.153 37.85C265.453 37.85 266.703 38.9 266.803 40.2H261.453Z" fill="black"/>
<defs>
<linearGradient id="paint0_linear_216_429" x1="36.2985" y1="17.2264" x2="-0.843112" y2="18.0798" gradientUnits="userSpaceOnUse">
<stop stop-color="#CB79F2"/>
<stop offset="1" stop-color="#9BF2C8"/>
</linearGradient>
</defs>
</svg>
